<svg xmlns="http://www.w3.org/2000/svg" width="512" height="512" viewBox="0 0 512 512" version="1.1"><path d="M 356.500 82 C 359.209 84.750, 361.650 87, 361.925 87 C 362.200 87, 360.209 84.750, 357.500 82 C 354.791 79.250, 352.350 77, 352.075 77 C 351.800 77, 353.791 79.250, 356.500 82 M 165.453 91.250 L 161.500 95.500 165.750 91.547 C 169.702 87.871, 170.460 87, 169.703 87 C 169.540 87, 167.627 88.912, 165.453 91.250 M 174.958 91.250 C 177.410 93.862, 179.548 96, 179.708 96 C 180.459 96, 179.665 95.102, 175.250 90.958 L 170.500 86.500 174.958 91.250 M 351.958 101.250 C 356.102 105.665, 357 106.459, 357 105.708 C 357 105.548, 354.863 103.410, 352.250 100.958 L 347.500 96.500 351.958 101.250 M 170 106.500 C 167.571 108.975, 165.809 111, 166.084 111 C 166.359 111, 168.571 108.975, 171 106.500 C 173.429 104.025, 175.191 102, 174.916 102 C 174.641 102, 172.429 104.025, 170 106.500 M 395 143.500 C 397.987 146.525, 400.657 149, 400.932 149 C 401.207 149, 398.987 146.525, 396 143.500 C 393.013 140.475, 390.343 138, 390.068 138 C 389.793 138, 392.013 140.475, 395 143.500 M 340 147.500 C 337.571 149.975, 335.809 152, 336.084 152 C 336.359 152, 338.571 149.975, 341 147.500 C 343.429 145.025, 345.191 143, 344.916 143 C 344.641 143, 342.429 145.025, 340 147.500 M 125.946 151.750 L 122.500 155.500 126.250 152.054 C 129.740 148.846, 130.460 148, 129.696 148 C 129.529 148, 127.842 149.688, 125.946 151.750 M 342.232 160.483 C 346.167 164.603, 347.177 165.207, 348.232 164.072 C 349.262 162.963, 349.248 162.850, 348.157 163.470 C 347.279 163.969, 345.199 162.725, 342.157 159.881 L 337.500 155.529 342.232 160.483 M 136.200 429.200 C 135.310 430.090, 135 440.022, 135 467.700 L 135 505 183.893 505 L 232.785 505 233.459 487.750 C 233.830 478.262, 233.981 461.725, 233.794 451 C 233.491 433.636, 233.429 434.595, 233.227 459.750 L 233 488 199.960 488 C 169.512 488, 166.629 487.851, 163.210 486.106 C 158.966 483.940, 156.922 481.845, 154.621 477.300 C 153.266 474.624, 153 470.317, 153 451.050 L 153 428 145.200 428 C 140.467 428, 136.928 428.472, 136.200 429.200 M 280.250 428.662 C 279.281 429.053, 279 437.686, 279 467.083 L 279 505 328 505 L 377 505 377 496.536 L 377 488.073 341.750 487.786 C 293.842 487.397, 296.670 489.603, 296.186 452.250 L 295.871 428 288.686 428.079 C 284.734 428.122, 280.938 428.385, 280.250 428.662" stroke="none" fill="#f2eae7" fill-rule="evenodd"/><path d="M 401.936 87.518 C 381.322 108.024, 384.041 108.003, 362.838 87.815 L 346.890 72.630 340.896 78.624 L 334.902 84.618 349.600 98.543 C 364.671 112.822, 367.726 117.021, 366.086 121.202 C 365.590 122.466, 358.482 130.127, 350.290 138.227 L 335.396 152.954 340.977 158.477 C 344.047 161.515, 346.949 164, 347.427 164 C 347.906 164, 355.138 157.250, 363.500 149 C 383.672 129.097, 380.992 129.065, 401.836 149.463 L 417.636 164.925 423.568 158.911 L 429.500 152.897 413.750 137.403 C 400.062 123.938, 398 121.499, 398 118.775 C 398 116.067, 400.138 113.488, 413.725 99.805 L 429.449 83.969 423.475 78.002 L 417.500 72.036 401.936 87.518 M 147.479 110.030 C 123.268 134.268, 121.201 135.778, 114.777 133.936 C 113.025 133.434, 109.477 130.940, 106.894 128.395 C 104.310 125.850, 101.797 123.933, 101.310 124.134 C 100.822 124.335, 98.523 126.581, 96.199 129.126 L 91.975 133.751 103.867 144.876 C 113.180 153.587, 116.369 156, 118.573 156 C 120.795 156, 123.552 153.869, 131.690 145.860 L 141.994 135.721 146.845 136.295 C 151.636 136.863, 151.761 136.804, 156.814 131.685 C 160.700 127.748, 161.703 126.139, 160.981 125 C 160.458 124.175, 160.024 122.130, 160.015 120.456 C 160.003 117.967, 161.811 115.489, 169.939 106.859 L 179.879 96.305 175.168 91.666 L 170.458 87.026 147.479 110.030 M 153 451.050 C 153 470.317, 153.266 474.624, 154.621 477.300 C 156.922 481.845, 158.966 483.940, 163.210 486.106 C 166.629 487.851, 169.512 488, 199.960 488 L 233 488 233 458.607 C 233 432.727, 232.811 429.141, 231.418 428.607 C 230.548 428.273, 212.548 428, 191.418 428 L 153 428 153 451.050 M 296.186 452.250 C 296.534 479.115, 296.857 480.622, 303.235 485.171 C 306.485 487.489, 306.660 487.501, 341.750 487.786 L 377 488.073 377 459.236 C 377 438.141, 376.678 430.078, 375.800 429.200 C 374.907 428.307, 364.519 428, 335.236 428 L 295.871 428 296.186 452.250" stroke="none" fill="#f9f7f7" fill-rule="evenodd"/><path d="M 106.500 1.972 C 63.877 11.222, 30.465 40.649, 17.020 80.782 C -1.763 136.843, 23.784 198.527, 76.740 224.983 C 93.754 233.482, 109.720 237.249, 129 237.312 C 162.121 237.421, 190.341 225.837, 213.589 202.589 C 257.869 158.309, 260.554 88.904, 219.838 41.091 C 204.340 22.891, 181.619 8.905, 157.797 2.901 C 145.400 -0.223, 118.833 -0.705, 106.500 1.972 M 361.500 1.471 C 308.744 11.195, 269.494 53.685, 263.898 107.132 C 258.244 161.128, 292.122 213.609, 343.957 231.151 C 372.239 240.723, 402.735 239.435, 430.259 227.507 C 438.219 224.058, 456.022 212.878, 459.157 209.359 C 460.769 207.550, 461.350 205.299, 461.115 201.776 C 460.991 199.911, 456.222 197, 453.292 197 C 452.298 197, 448.113 199.438, 443.992 202.419 C 402.840 232.181, 347.577 228.866, 311.090 194.446 C 291.419 175.889, 279.965 151.255, 278.416 124.173 C 275.609 75.110, 307.842 30.923, 356 17.814 C 363.500 15.772, 366.676 15.506, 383 15.553 C 400.217 15.603, 402.124 15.797, 410.500 18.343 C 448.769 29.978, 476.251 59.676, 484.215 98 C 485.835 105.798, 486.104 110.098, 485.711 122 C 485.058 141.824, 481.609 154.484, 472.518 170.421 C 470.033 174.777, 468 179.282, 468 180.431 C 468 182.915, 472.438 188, 474.606 188 C 476.648 188, 480.213 186.043, 481.733 184.087 C 484.612 180.382, 492.945 162.884, 495.347 155.500 C 503.033 131.867, 502.898 104.415, 494.980 80.782 C 483.580 46.755, 456.182 18.831, 422.234 6.641 C 404.701 0.345, 379.327 -1.815, 361.500 1.471 M 109 16.554 C 87.548 21.157, 70.166 30.863, 54.768 46.836 C 40.699 61.430, 31.939 78.038, 27.780 98 C 24.936 111.653, 25.668 133.648, 29.394 146.500 C 39.539 181.493, 66.278 208.555, 100.508 218.474 C 125.948 225.847, 151.626 223.620, 175.500 211.973 C 202.917 198.597, 223.069 173.894, 230.518 144.528 C 245.328 86.146, 208.222 27.709, 149.162 16.405 C 139.874 14.627, 117.595 14.709, 109 16.554 M 330.796 67.796 L 319 79.592 318.990 84.546 L 318.979 89.500 333.490 103.789 C 341.470 111.647, 348.010 118.397, 348.022 118.789 C 348.034 119.180, 341.509 125.823, 333.522 133.552 L 319 147.603 319 152.296 C 319 156.848, 319.299 157.314, 328.948 167.798 C 345.955 186.276, 347.068 186.205, 368.179 165.287 L 381.948 151.643 384.224 153.528 C 385.476 154.564, 392.133 160.946, 399.017 167.709 C 406.588 175.147, 412.712 180.337, 414.517 180.843 C 419.728 182.306, 422.994 180.467, 433.269 170.283 C 450.506 153.201, 450.493 153.027, 430.482 132.982 L 415.906 118.381 429.203 105.478 C 436.516 98.382, 443.285 91.433, 444.243 90.038 C 448.464 83.895, 445.982 79.061, 431.259 64.750 C 423.253 56.967, 421.851 56, 418.579 56 C 413.023 56, 410.619 57.736, 396.514 71.931 C 389.372 79.119, 383.147 85, 382.681 85 C 382.215 85, 374.926 78.475, 366.483 70.500 C 351.655 56.493, 350.988 56, 346.862 56 C 342.743 56, 342.174 56.418, 330.796 67.796 M 164.950 71.699 C 163.547 72.690, 152.444 83.625, 140.275 96 L 118.151 118.500 114.326 114.916 C 105.550 106.694, 101.961 105.417, 96.118 108.439 C 91.879 110.631, 76.305 128.334, 75.536 131.835 C 74.499 136.557, 76.809 139.719, 91.477 153.651 C 107.294 168.673, 111.008 171.017, 118.907 170.958 C 126.575 170.901, 129.570 169.049, 141.664 156.888 C 152.571 145.920, 153.635 143.780, 150.443 139.223 C 149.397 137.729, 147.858 137, 145.750 137 C 143.122 137, 140.969 138.619, 132.452 147 C 118.542 160.689, 118.828 160.700, 103.215 145.880 C 96.772 139.763, 91.335 134.318, 91.133 133.779 C 90.932 133.240, 93.142 130.394, 96.046 127.453 L 101.326 122.107 106.413 126.698 C 109.211 129.223, 112.902 131.880, 114.615 132.601 C 120.898 135.249, 122.843 133.818, 147.441 108.441 L 170.297 84.861 175.648 90.147 C 178.592 93.053, 181 95.871, 181 96.409 C 181 96.946, 176.469 101.990, 170.931 107.618 C 161.864 116.832, 160.894 118.171, 161.181 121.076 C 161.388 123.174, 162.440 125.001, 164.186 126.299 C 166.496 128.016, 167.277 128.128, 169.759 127.100 C 172.576 125.933, 193.300 104.774, 195.715 100.600 C 198.816 95.238, 196.276 90.501, 184.435 79.570 C 173.859 69.806, 169.897 68.206, 164.950 71.699 M 339.991 77.509 L 333.541 84.017 349.172 99.759 C 357.769 108.416, 365.062 116.400, 365.379 117.500 C 365.695 118.600, 365.533 120.175, 365.018 121 C 364.503 121.825, 357.201 129.357, 348.791 137.737 L 333.500 152.974 340.171 159.649 L 346.842 166.324 363.171 150.676 C 376.608 137.800, 380.019 135.026, 382.429 135.014 C 384.879 135.002, 387.916 137.539, 400.969 150.500 C 409.554 159.025, 417.011 166.013, 417.539 166.030 C 418.068 166.046, 421.280 163.008, 424.678 159.280 L 430.856 152.500 414.899 137 C 401.428 123.915, 398.947 121.048, 398.971 118.596 C 398.995 116.172, 401.662 113.108, 415.073 100.096 L 431.146 84.500 424.317 77.769 L 417.489 71.039 401.419 86.436 C 392.580 94.904, 384.707 101.923, 383.924 102.035 C 379.870 102.611, 377.424 100.791, 363.031 86.500 C 354.446 77.975, 347.201 71, 346.932 71 C 346.663 71, 343.539 73.929, 339.991 77.509 M 21.625 211.408 C 9.349 215.977, 3.253 231.740, 9.368 243.101 C 13.375 250.545, 79.006 350.199, 83.253 355.287 C 91.171 364.773, 101.518 371.366, 118.723 377.886 L 128.500 381.592 128.775 397.888 L 129.050 414.185 125.090 418.029 C 122.843 420.210, 120.671 423.522, 120.070 425.686 C 119.409 428.066, 119.009 444.021, 119.006 468.115 C 119 505.671, 119.057 506.803, 121.073 509.365 C 123.554 512.519, 128.629 512.933, 131.935 510.250 C 134.079 508.509, 134.090 508.289, 134.025 468.796 C 133.962 430.391, 134.024 429.057, 135.914 428.046 C 138.868 426.465, 231.212 426.612, 232.800 428.200 C 233.693 429.093, 234 439.467, 234 468.700 C 234 506.667, 234.068 508.068, 236 510 C 238.785 512.785, 244.057 512.632, 246.826 509.686 C 248.984 507.388, 249 507.070, 249 467.136 C 249 424.879, 248.937 424.209, 244.474 419 C 243.516 417.883, 243.080 410.352, 242.763 389.500 C 242.353 362.494, 242.244 361.216, 239.695 353.500 C 236.382 343.475, 231.003 334.324, 224.349 327.392 C 216.518 319.235, 211.514 318.171, 208.489 324.021 C 206.176 328.494, 206.609 329.811, 212.476 336.148 C 218.833 343.013, 222.127 348.315, 225.172 356.580 C 227.147 361.942, 227.392 364.881, 227.765 387.750 L 228.177 413 186.088 413 L 144 413 144 399.500 C 144 386.836, 144.119 386, 145.927 386 C 148.155 386, 152 381.553, 152 378.976 C 152 375.254, 148.184 372.962, 132 366.962 C 122.925 363.598, 112.800 359.428, 109.500 357.695 C 98.178 351.751, 93.982 346.305, 56.750 289.232 C 28.128 245.357, 22 235.356, 22 232.520 C 22 228.136, 25.185 225, 29.638 225 C 32.485 225, 37.980 229.389, 72.880 259.533 C 111.708 293.070, 112.910 294.217, 114.561 299.283 C 116.031 303.799, 118.354 306.617, 131.839 320.250 C 148.540 337.133, 150.627 338.373, 155 334 C 159.266 329.734, 158.008 327.479, 142.999 312.499 C 128.343 297.871, 126.275 294.681, 127.435 288.495 C 128.086 285.027, 132.239 280.694, 136.082 279.474 C 141.055 277.896, 144.544 279.995, 165.213 297.004 C 186.504 314.524, 187.868 315.290, 193.249 312.750 C 196.152 311.381, 197.236 308.789, 196.363 305.309 C 195.670 302.548, 155.720 269.353, 149.699 266.535 C 140.046 262.016, 126.951 264.885, 119.480 273.154 L 115.832 277.191 113.666 275.241 C 99.961 262.901, 42.891 214.278, 40.359 212.784 C 35.988 210.205, 26.691 209.523, 21.625 211.408 M 474.741 211.368 C 472.673 212.140, 470.212 213.385, 469.272 214.135 C 467.281 215.725, 401.548 272.347, 398.334 275.241 L 396.168 277.191 392.520 273.154 C 384.691 264.488, 371.495 261.854, 361.681 267 C 359.059 268.375, 341.392 282.284, 322.421 297.910 C 281.627 331.511, 278.159 335.399, 271.954 354.500 C 269.864 360.931, 269.644 363.775, 269.246 389.500 C 268.923 410.341, 268.483 417.884, 267.526 419 C 263.062 424.211, 263 424.870, 263 467.262 C 263 506.498, 263.057 507.684, 265.039 509.811 C 267.687 512.654, 273.250 512.750, 276 510 C 277.932 508.068, 278 506.667, 278 468.700 C 278 439.467, 278.307 429.093, 279.200 428.200 C 280.793 426.607, 373.133 426.466, 376.096 428.051 C 378.001 429.071, 378.058 430.313, 377.965 468.789 C 377.869 508.396, 377.873 508.479, 380.045 510.238 C 383.372 512.931, 388.442 512.525, 390.927 509.365 C 392.943 506.803, 393 505.671, 392.994 468.115 C 392.991 444.021, 392.591 428.066, 391.930 425.686 C 391.331 423.529, 389.161 420.213, 386.935 418.053 L 383 414.234 383 398.096 C 383 382.307, 383.049 381.937, 385.250 381.008 C 386.488 380.485, 391.721 378.421, 396.881 376.421 C 402.040 374.421, 408.992 371.184, 412.330 369.227 C 424.613 362.028, 428.980 356.353, 467.225 297.881 C 486.874 267.840, 503.411 242.048, 503.975 240.565 C 505.570 236.372, 505.146 227.915, 503.121 223.500 C 501.022 218.924, 496.873 214.503, 492.609 212.298 C 488.463 210.154, 479.277 209.676, 474.741 211.368 M 439.120 259.533 C 400.292 293.070, 399.090 294.217, 397.439 299.283 C 395.969 303.799, 393.646 306.617, 380.161 320.250 C 363.460 337.133, 361.373 338.373, 357 334 C 352.768 329.768, 353.997 327.595, 369.414 312.042 C 381.647 299.700, 383.939 296.902, 384.563 293.547 C 386.027 285.682, 378.560 277.922, 370.909 279.357 C 368.280 279.850, 358.727 287.178, 332.409 308.889 C 294.735 339.967, 292.181 342.609, 287.226 355.621 C 284.700 362.254, 284.592 363.404, 284.215 387.750 L 283.823 413 325.912 413 L 368 413 368 399.500 C 368 386.836, 367.881 386, 366.073 386 C 363.845 386, 360 381.553, 360 378.976 C 360 375.248, 363.784 372.959, 379.500 367.176 C 388.300 363.937, 398.410 359.818, 401.966 358.021 C 413.564 352.160, 417.560 347.003, 455.250 289.269 C 484.250 244.846, 490 235.456, 490 232.519 C 490 227.923, 487.104 225, 482.550 225 C 479.456 225, 474.984 228.556, 439.120 259.533" stroke="none" fill="#000000" fill-rule="evenodd"/><path d="M 24.902 228.098 C 23.407 229.593, 22.920 231.101, 23.208 233.348 C 23.696 237.153, 91.019 340.284, 97.318 346.876 C 103.970 353.836, 111.899 358.378, 127.219 364.004 C 149.288 372.108, 150.668 372.783, 152.075 376.180 C 153.788 380.315, 152.313 384.120, 148.270 386 L 145.043 387.500 145.022 399.750 L 145 412 186.090 412 L 227.179 412 226.791 387.250 C 226.414 363.217, 226.325 362.302, 223.720 355.681 C 220.544 347.608, 218.446 344.416, 211.324 336.824 C 205.859 330.999, 204.515 326.885, 207.200 324.200 C 207.945 323.455, 208.040 322.689, 207.450 322.179 C 196.741 312.926, 195.502 312.160, 193.552 313.586 C 188.808 317.055, 186.444 315.813, 166.479 299.359 C 145.575 282.132, 142.584 280.009, 139.200 280.004 C 132.762 279.993, 127.321 286.430, 128.360 292.828 C 128.825 295.695, 131.623 299.061, 143.465 310.998 C 155.778 323.410, 158 326.115, 158 328.690 C 158 333.386, 154.603 337, 150.187 337 C 146.782 337, 145.402 335.875, 130.866 321.250 C 117.701 308.004, 115.009 304.785, 113.936 301 C 113.234 298.525, 111.724 295.438, 110.580 294.139 C 108.538 291.822, 40.271 232.587, 34.615 228.225 C 30.998 225.435, 27.609 225.391, 24.902 228.098 M 447 254.099 C 398.663 295.850, 399.726 294.838, 398.197 300.554 C 397.044 304.864, 395.080 307.249, 381.187 321.213 C 366.604 335.871, 365.218 337, 361.813 337 C 357.397 337, 354 333.386, 354 328.690 C 354 326.115, 356.222 323.410, 368.535 310.998 C 380.480 298.957, 383.173 295.710, 383.650 292.772 C 384.828 285.510, 377.292 278.654, 370.443 280.756 C 366.525 281.959, 301.541 335.266, 296.659 341.281 C 294.777 343.602, 292.055 347.854, 290.611 350.731 C 285.952 360.013, 285.031 366.520, 285.015 390.250 L 285 412 326 412 L 367 412 366.978 399.750 L 366.957 387.500 363.742 386 C 361.533 384.969, 360.239 383.468, 359.605 381.201 C 357.931 375.217, 360.441 373.347, 380.092 365.932 C 402.382 357.522, 404.711 356.268, 413.007 348.199 C 418.705 342.658, 425.867 332.353, 454.448 288.571 C 490.731 232.989, 491.495 231.568, 487.171 227.655 C 482.660 223.573, 481.321 224.454, 447 254.099" stroke="none" fill="#ffe6c6" fill-rule="evenodd"/><path d="M 24.902 228.098 C 23.407 229.593, 22.920 231.101, 23.208 233.348 C 23.696 237.153, 91.019 340.284, 97.318 346.876 C 103.970 353.836, 111.899 358.378, 127.219 364.004 C 149.288 372.108, 150.668 372.783, 152.075 376.180 C 153.788 380.315, 152.313 384.120, 148.270 386 L 145.043 387.500 145.022 399.750 L 145 412 186.090 412 L 227.179 412 226.791 387.250 C 226.414 363.217, 226.325 362.302, 223.720 355.681 C 220.544 347.608, 218.446 344.416, 211.324 336.824 C 205.859 330.999, 204.515 326.885, 207.200 324.200 C 207.945 323.455, 208.040 322.689, 207.450 322.179 C 196.741 312.926, 195.502 312.160, 193.552 313.586 C 188.808 317.055, 186.444 315.813, 166.479 299.359 C 145.575 282.132, 142.584 280.009, 139.200 280.004 C 132.762 279.993, 127.321 286.430, 128.360 292.828 C 128.825 295.695, 131.623 299.061, 143.465 310.998 C 155.778 323.410, 158 326.115, 158 328.690 C 158 333.386, 154.603 337, 150.187 337 C 146.782 337, 145.402 335.875, 130.866 321.250 C 117.701 308.004, 115.009 304.785, 113.936 301 C 113.234 298.525, 111.724 295.438, 110.580 294.139 C 108.538 291.822, 40.271 232.587, 34.615 228.225 C 30.998 225.435, 27.609 225.391, 24.902 228.098 M 447 254.099 C 398.663 295.850, 399.726 294.838, 398.197 300.554 C 397.044 304.864, 395.080 307.249, 381.187 321.213 C 366.604 335.871, 365.218 337, 361.813 337 C 357.397 337, 354 333.386, 354 328.690 C 354 326.115, 356.222 323.410, 368.535 310.998 C 380.480 298.957, 383.173 295.710, 383.650 292.772 C 384.828 285.510, 377.292 278.654, 370.443 280.756 C 366.525 281.959, 301.541 335.266, 296.659 341.281 C 294.777 343.602, 292.055 347.854, 290.611 350.731 C 285.952 360.013, 285.031 366.520, 285.015 390.250 L 285 412 326 412 L 367 412 366.978 399.750 L 366.957 387.500 363.742 386 C 361.533 384.969, 360.239 383.468, 359.605 381.201 C 357.931 375.217, 360.441 373.347, 380.092 365.932 C 402.382 357.522, 404.711 356.268, 413.007 348.199 C 418.705 342.658, 425.867 332.353, 454.448 288.571 C 490.731 232.989, 491.495 231.568, 487.171 227.655 C 482.660 223.573, 481.321 224.454, 447 254.099" stroke="none" fill="#ffe6c6" fill-rule="evenodd"/><path d="M 119 15.577 C 117.625 15.822, 113.800 16.492, 110.500 17.064 C 72.334 23.683, 39.324 54.673, 29.598 93.016 C 15.620 148.118, 48.025 203.399, 103.194 218.567 C 121.097 223.490, 143.959 222.857, 162 216.940 C 195.356 206, 221.111 178.311, 230.114 143.709 C 232.832 133.267, 233.747 113.947, 232.031 103.239 C 224.058 53.474, 183.312 17.205, 133.500 15.533 C 126.900 15.311, 120.375 15.331, 119 15.577 M 167.180 69.740 C 165.790 69.990, 155.525 79.625, 141.568 93.781 L 118.275 117.405 112.491 112.250 C 101.990 102.891, 98.095 103.771, 84.559 118.563 C 75.316 128.664, 74.999 129.166, 74.973 133.755 L 74.947 138.500 90.216 153.251 C 98.614 161.364, 107.063 168.789, 108.992 169.751 C 113.525 172.011, 124.330 172.042, 128.500 169.806 C 132.022 167.918, 151.070 148.891, 152.439 145.894 C 153.058 144.538, 152.974 142.769, 152.191 140.696 C 151.038 137.641, 151.165 137.391, 156.712 131.786 C 160.480 127.978, 162.755 126.355, 163.409 127.009 C 163.954 127.554, 165.972 128, 167.894 128 C 171.060 128, 172.515 126.824, 183.444 115.427 C 201.217 96.893, 201.445 95.051, 187.623 81.665 C 175.577 69.998, 173.261 68.647, 167.180 69.740" stroke="none" fill="#9de5d1" fill-rule="evenodd"/><path d="M 401.936 87.518 C 381.322 108.024, 384.041 108.003, 362.838 87.815 L 346.890 72.630 340.896 78.624 L 334.902 84.618 349.600 98.543 C 364.671 112.822, 367.726 117.021, 366.086 121.202 C 365.590 122.466, 358.482 130.127, 350.290 138.227 L 335.396 152.954 340.977 158.477 C 344.047 161.515, 346.949 164, 347.427 164 C 347.906 164, 355.138 157.250, 363.500 149 C 383.672 129.097, 380.992 129.065, 401.836 149.463 L 417.636 164.925 423.568 158.911 L 429.500 152.897 413.750 137.403 C 400.062 123.938, 398 121.499, 398 118.775 C 398 116.067, 400.138 113.488, 413.725 99.805 L 429.449 83.969 423.475 78.002 L 417.500 72.036 401.936 87.518 M 147.479 110.030 C 123.268 134.268, 121.201 135.778, 114.777 133.936 C 113.025 133.434, 109.477 130.940, 106.894 128.395 C 104.310 125.850, 101.797 123.933, 101.310 124.134 C 100.822 124.335, 98.523 126.581, 96.199 129.126 L 91.975 133.751 103.867 144.876 C 113.180 153.587, 116.369 156, 118.573 156 C 120.795 156, 123.552 153.869, 131.690 145.860 L 141.994 135.721 146.845 136.295 C 151.636 136.863, 151.761 136.804, 156.814 131.685 C 160.700 127.748, 161.703 126.139, 160.981 125 C 160.458 124.175, 160.024 122.130, 160.015 120.456 C 160.003 117.967, 161.811 115.489, 169.939 106.859 L 179.879 96.305 175.168 91.666 L 170.458 87.026 147.479 110.030 M 153 451.050 C 153 470.317, 153.266 474.624, 154.621 477.300 C 156.922 481.845, 158.966 483.940, 163.210 486.106 C 166.629 487.851, 169.512 488, 199.960 488 L 233 488 233 458.607 C 233 432.727, 232.811 429.141, 231.418 428.607 C 230.548 428.273, 212.548 428, 191.418 428 L 153 428 153 451.050 M 296.186 452.250 C 296.534 479.115, 296.857 480.622, 303.235 485.171 C 306.485 487.489, 306.660 487.501, 341.750 487.786 L 377 488.073 377 459.236 C 377 438.141, 376.678 430.078, 375.800 429.200 C 374.907 428.307, 364.519 428, 335.236 428 L 295.871 428 296.186 452.250" stroke="none" fill="#f9f7f7" fill-rule="evenodd"/><path d="M 367.585 16.036 C 339.097 20.530, 312.349 37.154, 297.047 59.877 C 290.985 68.879, 284.523 83.036, 281.928 93 C 278.650 105.586, 278.143 126.278, 280.798 139.119 C 287.742 172.704, 311.138 201.175, 342.476 214.178 C 358.941 221.010, 380.901 223.732, 397.761 221.031 C 413.911 218.444, 430.501 211.641, 442.834 202.550 C 451.767 195.965, 453.172 195.440, 456.899 197.300 L 459.980 198.837 465.490 192.748 C 470.707 186.983, 470.912 186.560, 469.334 184.816 C 466.776 181.990, 467.368 178.082, 471.357 171.450 C 476.417 163.037, 481.536 149.918, 483.655 139.931 C 485.798 129.832, 486.059 108.472, 484.149 99.500 C 475.450 58.639, 446.678 28.284, 406.974 18.077 C 397.263 15.581, 377.096 14.536, 367.585 16.036 M 342.500 56.152 C 339.372 57.858, 321.023 76.190, 319.429 79.200 C 317.603 82.651, 317.613 86.351, 319.458 89.919 C 320.260 91.470, 327.047 98.523, 334.541 105.594 L 348.166 118.449 334.833 131.474 C 319.602 146.354, 318.002 148.358, 318.042 152.500 C 318.084 156.859, 319.390 158.698, 330.760 170.404 C 346.319 186.423, 347.027 186.357, 367.230 166.989 C 375.255 159.295, 382.206 153, 382.675 153 C 383.145 153, 389.372 158.881, 396.514 166.069 C 409.993 179.634, 413.112 182, 417.516 182 C 421.590 182, 423.821 180.445, 433.821 170.640 C 444.410 160.257, 446 157.807, 446 151.875 C 446 147.775, 445.572 147.218, 431.519 133.052 L 417.037 118.454 431.018 104.474 C 445.868 89.624, 447.589 86.879, 445.619 81.198 C 444.089 76.786, 426.480 58.099, 422.147 56.288 C 415.431 53.482, 413.103 54.804, 397.047 70.553 L 382.351 84.967 367.781 70.999 C 351.193 55.097, 347.938 53.185, 342.500 56.152 M 158.946 75.750 L 155.500 79.500 159.250 76.054 C 161.313 74.158, 163 72.471, 163 72.304 C 163 71.540, 162.154 72.260, 158.946 75.750 M 409.971 78.750 L 403.500 85.500 410.250 79.029 C 413.962 75.470, 417 72.432, 417 72.279 C 417 71.543, 415.982 72.480, 409.971 78.750 M 421 75.500 C 422.866 77.425, 424.617 79, 424.892 79 C 425.167 79, 423.866 77.425, 422 75.500 C 420.134 73.575, 418.383 72, 418.108 72 C 417.833 72, 419.134 73.575, 421 75.500 M 190.500 85 C 192.648 87.200, 194.631 89, 194.906 89 C 195.181 89, 193.648 87.200, 191.500 85 C 189.352 82.800, 187.369 81, 187.094 81 C 186.819 81, 188.352 82.800, 190.500 85 M 338.500 89 C 341.209 91.750, 343.650 94, 343.925 94 C 344.200 94, 342.209 91.750, 339.500 89 C 336.791 86.250, 334.350 84, 334.075 84 C 333.800 84, 335.791 86.250, 338.500 89 M 371 95.500 C 373.987 98.525, 376.657 101, 376.932 101 C 377.207 101, 374.987 98.525, 372 95.500 C 369.013 92.475, 366.343 90, 366.068 90 C 365.793 90, 368.013 92.475, 371 95.500 M 404.462 109.250 L 399.500 114.500 404.750 109.538 C 407.637 106.808, 410 104.446, 410 104.288 C 410 103.541, 409.074 104.372, 404.462 109.250 M 137.477 119.250 L 129.500 127.500 137.750 119.523 C 145.412 112.115, 146.456 111, 145.727 111 C 145.576 111, 141.864 114.713, 137.477 119.250 M 175.453 123.250 L 171.500 127.500 175.750 123.547 C 179.702 119.871, 180.460 119, 179.703 119 C 179.540 119, 177.627 120.912, 175.453 123.250 M 103 124.313 C 103 124.485, 104.463 125.948, 106.250 127.563 L 109.500 130.500 106.563 127.250 C 103.825 124.221, 103 123.540, 103 124.313 M 414.500 138 C 418.320 141.850, 421.671 145, 421.946 145 C 422.221 145, 419.320 141.850, 415.500 138 C 411.680 134.150, 408.329 131, 408.054 131 C 407.779 131, 410.680 134.150, 414.500 138 M 96 138.313 C 96 138.485, 97.463 139.948, 99.250 141.563 L 102.500 144.500 99.563 141.250 C 96.825 138.221, 96 137.540, 96 138.313 M 360.473 152.250 L 353.500 159.500 360.750 152.527 C 367.484 146.050, 368.457 145, 367.723 145 C 367.571 145, 364.308 148.262, 360.473 152.250 M 425.946 156.750 L 422.500 160.500 426.250 157.054 C 428.313 155.158, 430 153.471, 430 153.304 C 430 152.540, 429.154 153.260, 425.946 156.750 M 132 322.500 C 138.858 329.375, 144.695 335, 144.970 335 C 145.245 335, 139.858 329.375, 133 322.500 C 126.142 315.625, 120.305 310, 120.030 310 C 119.755 310, 125.142 315.625, 132 322.500 M 378.985 322.750 L 366.500 335.500 379.250 323.015 C 391.093 311.418, 392.453 310, 391.735 310 C 391.589 310, 385.852 315.738, 378.985 322.750 M 144.453 399.748 L 144.500 412.500 185.500 412.517 L 226.500 412.533 185.780 412.256 L 145.060 411.978 144.733 399.487 L 144.407 386.997 144.453 399.748 M 367.215 399.239 L 367 411.978 325.750 412.250 L 284.500 412.523 325.781 412.761 C 359.034 412.954, 367.160 412.746, 367.565 411.692 C 367.841 410.972, 367.924 405.010, 367.748 398.442 L 367.430 386.500 367.215 399.239 M 377.454 467.500 C 377.453 488.400, 377.586 497.092, 377.748 486.816 C 377.911 476.540, 377.911 459.440, 377.749 448.816 C 377.587 438.192, 377.454 446.600, 377.454 467.500 M 134.453 468 C 134.453 488.625, 134.586 497.063, 134.749 486.750 C 134.911 476.438, 134.911 459.563, 134.749 449.250 C 134.586 438.938, 134.453 447.375, 134.453 468" stroke="none" fill="#fb8c00" fill-rule="evenodd"/><path d="M 106.500 1.972 C 63.877 11.222, 30.465 40.649, 17.020 80.782 C -1.763 136.843, 23.784 198.527, 76.740 224.983 C 93.754 233.482, 109.720 237.249, 129 237.312 C 162.121 237.421, 190.341 225.837, 213.589 202.589 C 257.869 158.309, 260.554 88.904, 219.838 41.091 C 204.340 22.891, 181.619 8.905, 157.797 2.901 C 145.400 -0.223, 118.833 -0.705, 106.500 1.972 M 361.500 1.471 C 308.744 11.195, 269.494 53.685, 263.898 107.132 C 258.244 161.128, 292.122 213.609, 343.957 231.151 C 372.239 240.723, 402.735 239.435, 430.259 227.507 C 438.219 224.058, 456.022 212.878, 459.157 209.359 C 460.769 207.550, 461.350 205.299, 461.115 201.776 C 460.991 199.911, 456.222 197, 453.292 197 C 452.298 197, 448.113 199.438, 443.992 202.419 C 402.840 232.181, 347.577 228.866, 311.090 194.446 C 291.419 175.889, 279.965 151.255, 278.416 124.173 C 275.609 75.110, 307.842 30.923, 356 17.814 C 363.500 15.772, 366.676 15.506, 383 15.553 C 400.217 15.603, 402.124 15.797, 410.500 18.343 C 448.769 29.978, 476.251 59.676, 484.215 98 C 485.835 105.798, 486.104 110.098, 485.711 122 C 485.058 141.824, 481.609 154.484, 472.518 170.421 C 470.033 174.777, 468 179.282, 468 180.431 C 468 182.915, 472.438 188, 474.606 188 C 476.648 188, 480.213 186.043, 481.733 184.087 C 484.612 180.382, 492.945 162.884, 495.347 155.500 C 503.033 131.867, 502.898 104.415, 494.980 80.782 C 483.580 46.755, 456.182 18.831, 422.234 6.641 C 404.701 0.345, 379.327 -1.815, 361.500 1.471 M 109 16.554 C 87.548 21.157, 70.166 30.863, 54.768 46.836 C 40.699 61.430, 31.939 78.038, 27.780 98 C 24.936 111.653, 25.668 133.648, 29.394 146.500 C 39.539 181.493, 66.278 208.555, 100.508 218.474 C 125.948 225.847, 151.626 223.620, 175.500 211.973 C 202.917 198.597, 223.069 173.894, 230.518 144.528 C 245.328 86.146, 208.222 27.709, 149.162 16.405 C 139.874 14.627, 117.595 14.709, 109 16.554 M 330.796 67.796 L 319 79.592 318.990 84.546 L 318.979 89.500 333.490 103.789 C 341.470 111.647, 348.010 118.397, 348.022 118.789 C 348.034 119.180, 341.509 125.823, 333.522 133.552 L 319 147.603 319 152.296 C 319 156.848, 319.299 157.314, 328.948 167.798 C 345.955 186.276, 347.068 186.205, 368.179 165.287 L 381.948 151.643 384.224 153.528 C 385.476 154.564, 392.133 160.946, 399.017 167.709 C 406.588 175.147, 412.712 180.337, 414.517 180.843 C 419.728 182.306, 422.994 180.467, 433.269 170.283 C 450.506 153.201, 450.493 153.027, 430.482 132.982 L 415.906 118.381 429.203 105.478 C 436.516 98.382, 443.285 91.433, 444.243 90.038 C 448.464 83.895, 445.982 79.061, 431.259 64.750 C 423.253 56.967, 421.851 56, 418.579 56 C 413.023 56, 410.619 57.736, 396.514 71.931 C 389.372 79.119, 383.147 85, 382.681 85 C 382.215 85, 374.926 78.475, 366.483 70.500 C 351.655 56.493, 350.988 56, 346.862 56 C 342.743 56, 342.174 56.418, 330.796 67.796 M 164.950 71.699 C 163.547 72.690, 152.444 83.625, 140.275 96 L 118.151 118.500 114.326 114.916 C 105.550 106.694, 101.961 105.417, 96.118 108.439 C 91.879 110.631, 76.305 128.334, 75.536 131.835 C 74.499 136.557, 76.809 139.719, 91.477 153.651 C 107.294 168.673, 111.008 171.017, 118.907 170.958 C 126.575 170.901, 129.570 169.049, 141.664 156.888 C 152.571 145.920, 153.635 143.780, 150.443 139.223 C 149.397 137.729, 147.858 137, 145.750 137 C 143.122 137, 140.969 138.619, 132.452 147 C 118.542 160.689, 118.828 160.700, 103.215 145.880 C 96.772 139.763, 91.335 134.318, 91.133 133.779 C 90.932 133.240, 93.142 130.394, 96.046 127.453 L 101.326 122.107 106.413 126.698 C 109.211 129.223, 112.902 131.880, 114.615 132.601 C 120.898 135.249, 122.843 133.818, 147.441 108.441 L 170.297 84.861 175.648 90.147 C 178.592 93.053, 181 95.871, 181 96.409 C 181 96.946, 176.469 101.990, 170.931 107.618 C 161.864 116.832, 160.894 118.171, 161.181 121.076 C 161.388 123.174, 162.440 125.001, 164.186 126.299 C 166.496 128.016, 167.277 128.128, 169.759 127.100 C 172.576 125.933, 193.300 104.774, 195.715 100.600 C 198.816 95.238, 196.276 90.501, 184.435 79.570 C 173.859 69.806, 169.897 68.206, 164.950 71.699 M 339.991 77.509 L 333.541 84.017 349.172 99.759 C 357.769 108.416, 365.062 116.400, 365.379 117.500 C 365.695 118.600, 365.533 120.175, 365.018 121 C 364.503 121.825, 357.201 129.357, 348.791 137.737 L 333.500 152.974 340.171 159.649 L 346.842 166.324 363.171 150.676 C 376.608 137.800, 380.019 135.026, 382.429 135.014 C 384.879 135.002, 387.916 137.539, 400.969 150.500 C 409.554 159.025, 417.011 166.013, 417.539 166.030 C 418.068 166.046, 421.280 163.008, 424.678 159.280 L 430.856 152.500 414.899 137 C 401.428 123.915, 398.947 121.048, 398.971 118.596 C 398.995 116.172, 401.662 113.108, 415.073 100.096 L 431.146 84.500 424.317 77.769 L 417.489 71.039 401.419 86.436 C 392.580 94.904, 384.707 101.923, 383.924 102.035 C 379.870 102.611, 377.424 100.791, 363.031 86.500 C 354.446 77.975, 347.201 71, 346.932 71 C 346.663 71, 343.539 73.929, 339.991 77.509 M 21.625 211.408 C 9.349 215.977, 3.253 231.740, 9.368 243.101 C 13.375 250.545, 79.006 350.199, 83.253 355.287 C 91.171 364.773, 101.518 371.366, 118.723 377.886 L 128.500 381.592 128.775 397.888 L 129.050 414.185 125.090 418.029 C 122.843 420.210, 120.671 423.522, 120.070 425.686 C 119.409 428.066, 119.009 444.021, 119.006 468.115 C 119 505.671, 119.057 506.803, 121.073 509.365 C 123.554 512.519, 128.629 512.933, 131.935 510.250 C 134.079 508.509, 134.090 508.289, 134.025 468.796 C 133.962 430.391, 134.024 429.057, 135.914 428.046 C 138.868 426.465, 231.212 426.612, 232.800 428.200 C 233.693 429.093, 234 439.467, 234 468.700 C 234 506.667, 234.068 508.068, 236 510 C 238.785 512.785, 244.057 512.632, 246.826 509.686 C 248.984 507.388, 249 507.070, 249 467.136 C 249 424.879, 248.937 424.209, 244.474 419 C 243.516 417.883, 243.080 410.352, 242.763 389.500 C 242.353 362.494, 242.244 361.216, 239.695 353.500 C 236.382 343.475, 231.003 334.324, 224.349 327.392 C 216.518 319.235, 211.514 318.171, 208.489 324.021 C 206.176 328.494, 206.609 329.811, 212.476 336.148 C 218.833 343.013, 222.127 348.315, 225.172 356.580 C 227.147 361.942, 227.392 364.881, 227.765 387.750 L 228.177 413 186.088 413 L 144 413 144 399.500 C 144 386.836, 144.119 386, 145.927 386 C 148.155 386, 152 381.553, 152 378.976 C 152 375.254, 148.184 372.962, 132 366.962 C 122.925 363.598, 112.800 359.428, 109.500 357.695 C 98.178 351.751, 93.982 346.305, 56.750 289.232 C 28.128 245.357, 22 235.356, 22 232.520 C 22 228.136, 25.185 225, 29.638 225 C 32.485 225, 37.980 229.389, 72.880 259.533 C 111.708 293.070, 112.910 294.217, 114.561 299.283 C 116.031 303.799, 118.354 306.617, 131.839 320.250 C 148.540 337.133, 150.627 338.373, 155 334 C 159.266 329.734, 158.008 327.479, 142.999 312.499 C 128.343 297.871, 126.275 294.681, 127.435 288.495 C 128.086 285.027, 132.239 280.694, 136.082 279.474 C 141.055 277.896, 144.544 279.995, 165.213 297.004 C 186.504 314.524, 187.868 315.290, 193.249 312.750 C 196.152 311.381, 197.236 308.789, 196.363 305.309 C 195.670 302.548, 155.720 269.353, 149.699 266.535 C 140.046 262.016, 126.951 264.885, 119.480 273.154 L 115.832 277.191 113.666 275.241 C 99.961 262.901, 42.891 214.278, 40.359 212.784 C 35.988 210.205, 26.691 209.523, 21.625 211.408 M 474.741 211.368 C 472.673 212.140, 470.212 213.385, 469.272 214.135 C 467.281 215.725, 401.548 272.347, 398.334 275.241 L 396.168 277.191 392.520 273.154 C 384.691 264.488, 371.495 261.854, 361.681 267 C 359.059 268.375, 341.392 282.284, 322.421 297.910 C 281.627 331.511, 278.159 335.399, 271.954 354.500 C 269.864 360.931, 269.644 363.775, 269.246 389.500 C 268.923 410.341, 268.483 417.884, 267.526 419 C 263.062 424.211, 263 424.870, 263 467.262 C 263 506.498, 263.057 507.684, 265.039 509.811 C 267.687 512.654, 273.250 512.750, 276 510 C 277.932 508.068, 278 506.667, 278 468.700 C 278 439.467, 278.307 429.093, 279.200 428.200 C 280.793 426.607, 373.133 426.466, 376.096 428.051 C 378.001 429.071, 378.058 430.313, 377.965 468.789 C 377.869 508.396, 377.873 508.479, 380.045 510.238 C 383.372 512.931, 388.442 512.525, 390.927 509.365 C 392.943 506.803, 393 505.671, 392.994 468.115 C 392.991 444.021, 392.591 428.066, 391.930 425.686 C 391.331 423.529, 389.161 420.213, 386.935 418.053 L 383 414.234 383 398.096 C 383 382.307, 383.049 381.937, 385.250 381.008 C 386.488 380.485, 391.721 378.421, 396.881 376.421 C 402.040 374.421, 408.992 371.184, 412.330 369.227 C 424.613 362.028, 428.980 356.353, 467.225 297.881 C 486.874 267.840, 503.411 242.048, 503.975 240.565 C 505.570 236.372, 505.146 227.915, 503.121 223.500 C 501.022 218.924, 496.873 214.503, 492.609 212.298 C 488.463 210.154, 479.277 209.676, 474.741 211.368 M 439.120 259.533 C 400.292 293.070, 399.090 294.217, 397.439 299.283 C 395.969 303.799, 393.646 306.617, 380.161 320.250 C 363.460 337.133, 361.373 338.373, 357 334 C 352.768 329.768, 353.997 327.595, 369.414 312.042 C 381.647 299.700, 383.939 296.902, 384.563 293.547 C 386.027 285.682, 378.560 277.922, 370.909 279.357 C 368.280 279.850, 358.727 287.178, 332.409 308.889 C 294.735 339.967, 292.181 342.609, 287.226 355.621 C 284.700 362.254, 284.592 363.404, 284.215 387.750 L 283.823 413 325.912 413 L 368 413 368 399.500 C 368 386.836, 367.881 386, 366.073 386 C 363.845 386, 360 381.553, 360 378.976 C 360 375.248, 363.784 372.959, 379.500 367.176 C 388.300 363.937, 398.410 359.818, 401.966 358.021 C 413.564 352.160, 417.560 347.003, 455.250 289.269 C 484.250 244.846, 490 235.456, 490 232.519 C 490 227.923, 487.104 225, 482.550 225 C 479.456 225, 474.984 228.556, 439.120 259.533" stroke="none" fill="#000000" fill-rule="evenodd"/><path d="M 116.269 15.693 C 117.242 15.947, 118.592 15.930, 119.269 15.656 C 119.946 15.382, 119.150 15.175, 117.500 15.195 C 115.850 15.215, 115.296 15.439, 116.269 15.693 M 369.269 15.693 C 370.242 15.947, 371.592 15.930, 372.269 15.656 C 372.946 15.382, 372.150 15.175, 370.500 15.195 C 368.850 15.215, 368.296 15.439, 369.269 15.693 M 393.269 15.693 C 394.242 15.947, 395.592 15.930, 396.269 15.656 C 396.946 15.382, 396.150 15.175, 394.500 15.195 C 392.850 15.215, 392.296 15.439, 393.269 15.693 M 61.437 40.250 L 58.500 43.500 61.750 40.563 C 63.538 38.948, 65 37.485, 65 37.313 C 65 36.540, 64.175 37.221, 61.437 40.250 M 449 39.500 C 450.292 40.875, 451.574 42, 451.849 42 C 452.124 42, 451.292 40.875, 450 39.500 C 448.708 38.125, 447.426 37, 447.151 37 C 446.876 37, 447.708 38.125, 449 39.500 M 202.500 45 C 205.766 48.300, 208.662 51, 208.937 51 C 209.212 51, 206.766 48.300, 203.500 45 C 200.234 41.700, 197.338 39, 197.063 39 C 196.788 39, 199.234 41.700, 202.500 45 M 307.966 45.750 L 302.500 51.500 308.250 46.034 C 311.413 43.028, 314 40.440, 314 40.284 C 314 39.542, 313.044 40.408, 307.966 45.750 M 458 48.313 C 458 48.485, 459.462 49.948, 461.250 51.563 L 464.500 54.500 461.563 51.250 C 458.825 48.221, 458 47.540, 458 48.313 M 49.924 51.750 L 47.500 54.500 50.250 52.076 C 52.820 49.810, 53.459 49, 52.674 49 C 52.495 49, 51.258 50.237, 49.924 51.750 M 345.269 55.693 C 346.242 55.947, 347.592 55.930, 348.269 55.656 C 348.946 55.382, 348.150 55.175, 346.500 55.195 C 344.850 55.215, 344.296 55.439, 345.269 55.693 M 416.269 55.693 C 417.242 55.947, 418.592 55.930, 419.269 55.656 C 419.946 55.382, 419.150 55.175, 417.500 55.195 C 415.850 55.215, 415.296 55.439, 416.269 55.693 M 296.232 59.750 C 293.643 63.489, 292.802 65, 293.308 65 C 293.542 65, 294.925 63.200, 296.381 61 C 299.340 56.529, 299.211 55.448, 296.232 59.750 M 329.982 67.750 L 319.500 78.500 330.250 68.018 C 340.235 58.282, 341.454 57, 340.732 57 C 340.585 57, 335.747 61.837, 329.982 67.750 M 359 63.500 C 362.543 67.075, 365.667 70, 365.942 70 C 366.217 70, 363.543 67.075, 360 63.500 C 356.457 59.925, 353.333 57, 353.058 57 C 352.783 57, 355.457 59.925, 359 63.500 M 430.500 64 C 434.320 67.850, 437.671 71, 437.946 71 C 438.221 71, 435.320 67.850, 431.500 64 C 427.680 60.150, 424.329 57, 424.054 57 C 423.779 57, 426.680 60.150, 430.500 64 M 395.486 72.250 L 382.500 85.500 395.750 72.514 C 403.038 65.372, 409 59.410, 409 59.264 C 409 58.547, 407.548 59.942, 395.486 72.250 M 289.450 71.099 C 288.028 73.904, 287.033 76.367, 287.238 76.571 C 287.443 76.776, 288.818 74.482, 290.295 71.472 C 291.771 68.462, 292.766 66, 292.506 66 C 292.246 66, 290.871 68.295, 289.450 71.099 M 181 76.500 C 183.987 79.525, 186.657 82, 186.932 82 C 187.207 82, 184.987 79.525, 182 76.500 C 179.013 73.475, 176.343 71, 176.068 71 C 175.793 71, 178.013 73.475, 181 76.500 M 339.971 77.750 L 333.500 84.500 340.255 78.024 L 347.009 71.549 356.755 81.024 L 366.500 90.500 357.020 80.750 C 351.806 75.388, 347.293 71, 346.991 71 C 346.689 71, 343.530 74.037, 339.971 77.750 M 377.500 81 C 379.648 83.200, 381.631 85, 381.906 85 C 382.181 85, 380.648 83.200, 378.500 81 C 376.352 78.800, 374.369 77, 374.094 77 C 373.819 77, 375.352 78.800, 377.500 81 M 427.276 81.730 L 430.006 84.461 419.253 95.480 L 408.500 106.500 419.732 95.535 L 430.963 84.571 428.294 81.785 C 426.827 80.253, 425.383 79, 425.086 79 C 424.789 79, 425.774 80.229, 427.276 81.730 M 136.777 98.716 L 118.061 117.432 114.780 114.489 L 111.500 111.546 114.758 115.012 L 118.016 118.478 137.255 99.239 C 147.836 88.657, 156.268 80, 155.993 80 C 155.718 80, 147.071 88.422, 136.777 98.716 M 318.252 84.500 C 318.263 86.700, 318.468 87.482, 318.707 86.238 C 318.946 84.994, 318.937 83.194, 318.687 82.238 C 318.437 81.282, 318.241 82.300, 318.252 84.500 M 395.481 92.250 L 385.500 102.500 395.750 92.519 C 401.387 87.029, 406 82.417, 406 82.269 C 406 81.545, 404.752 82.730, 395.481 92.250 M 155.987 99.750 L 141.500 114.500 156.012 100.250 L 170.524 86.001 176.001 91.250 L 181.477 96.500 176.023 90.750 C 173.023 87.588, 170.547 85, 170.521 85 C 170.495 85, 163.955 91.638, 155.987 99.750 M 327.500 99 C 331.874 103.400, 335.678 107, 335.953 107 C 336.228 107, 332.874 103.400, 328.500 99 C 324.126 94.600, 320.322 91, 320.047 91 C 319.772 91, 323.126 94.600, 327.500 99 M 353.982 104.250 C 363.718 114.235, 365 115.454, 365 114.732 C 365 114.585, 360.163 109.747, 354.250 103.982 L 343.500 93.500 353.982 104.250 M 427.235 107.264 L 416.003 118.529 430.751 133.014 L 445.500 147.500 431.253 132.991 L 417.007 118.482 428.248 107.241 C 434.430 101.058, 439.259 96, 438.978 96 C 438.697 96, 433.413 101.069, 427.235 107.264 M 170.980 106.750 L 161.500 116.500 171.250 107.020 C 176.613 101.806, 181 97.418, 181 97.270 C 181 96.545, 179.785 97.694, 170.980 106.750 M 196 99.956 C 196 100.664, 192.298 105.127, 187.774 109.872 L 179.547 118.500 187.344 111 C 195.192 103.450, 197.653 100.319, 196.581 99.248 C 196.261 98.928, 196 99.247, 196 99.956 M 26.195 107.500 C 26.215 109.150, 26.439 109.704, 26.693 108.731 C 26.947 107.758, 26.930 106.408, 26.656 105.731 C 26.382 105.054, 26.175 105.850, 26.195 107.500 M 485.195 107.500 C 485.215 109.150, 485.439 109.704, 485.693 108.731 C 485.947 107.758, 485.930 106.408, 485.656 105.731 C 485.382 105.054, 485.175 105.850, 485.195 107.500 M 90.924 111.750 L 88.500 114.500 91.250 112.076 C 93.820 109.810, 94.459 109, 93.674 109 C 93.495 109, 92.258 110.237, 90.924 111.750 M 233.355 118.500 C 233.352 123.450, 233.521 125.601, 233.731 123.280 C 233.940 120.959, 233.943 116.909, 233.736 114.280 C 233.530 111.651, 233.358 113.550, 233.355 118.500 M 278.355 118.500 C 278.352 123.450, 278.521 125.601, 278.731 123.280 C 278.940 120.959, 278.943 116.909, 278.736 114.280 C 278.530 111.651, 278.358 113.550, 278.355 118.500 M 81 122.500 C 78.571 124.975, 76.809 127, 77.084 127 C 77.359 127, 79.571 124.975, 82 122.500 C 84.429 120.025, 86.191 118, 85.916 118 C 85.641 118, 83.429 120.025, 81 122.500 M 339.477 127.250 L 331.500 135.500 339.750 127.523 C 347.412 120.115, 348.456 119, 347.727 119 C 347.576 119, 343.864 122.713, 339.477 127.250 M 403.500 127 C 405.648 129.200, 407.631 131, 407.906 131 C 408.181 131, 406.648 129.200, 404.500 127 C 402.352 124.800, 400.369 123, 400.094 123 C 399.819 123, 401.352 124.800, 403.500 127 M 95 128.500 C 92.571 130.975, 90.809 133, 91.084 133 C 91.359 133, 93.571 130.975, 96 128.500 C 98.429 126.025, 100.191 124, 99.916 124 C 99.641 124, 97.429 126.025, 95 128.500 M 347.998 138.502 L 333.522 153.004 340.257 159.739 L 346.993 166.474 350.746 162.506 L 354.500 158.538 350.728 161.987 L 346.955 165.435 340.739 159.219 L 334.523 153.003 348.999 138.501 C 356.960 130.526, 363.249 124, 362.974 124 C 362.699 124, 355.960 130.526, 347.998 138.502 M 485.195 129.500 C 485.215 131.150, 485.439 131.704, 485.693 130.731 C 485.947 129.758, 485.930 128.408, 485.656 127.731 C 485.382 127.054, 485.175 127.850, 485.195 129.500 M 93 136.500 C 94.292 137.875, 95.574 139, 95.849 139 C 96.124 139, 95.292 137.875, 94 136.500 C 92.708 135.125, 91.426 134, 91.151 134 C 90.876 134, 91.708 135.125, 93 136.500 M 372.469 141.250 L 366.500 147.500 372.750 141.531 C 378.556 135.987, 379.458 135, 378.719 135 C 378.564 135, 375.751 137.813, 372.469 141.250 M 131.980 146.750 L 122.500 156.500 132.250 147.020 C 137.613 141.806, 142 137.418, 142 137.270 C 142 136.545, 140.785 137.694, 131.980 146.750 M 402 151.500 C 409.961 159.475, 416.699 166, 416.974 166 C 417.249 166, 410.961 159.475, 403 151.500 C 395.039 143.525, 388.301 137, 388.026 137 C 387.751 137, 394.039 143.525, 402 151.500 M 76 138.607 C 76 139.124, 79.713 143.136, 84.250 147.523 L 92.500 155.500 84.500 147.029 C 80.100 142.370, 76.388 138.358, 76.250 138.113 C 76.112 137.867, 76 138.090, 76 138.607 M 425.500 148 C 428.209 150.750, 430.650 153, 430.925 153 C 431.200 153, 429.209 150.750, 426.500 148 C 423.791 145.250, 421.350 143, 421.075 143 C 420.800 143, 422.791 145.250, 425.500 148 M 107.500 150 C 110.766 153.300, 113.662 156, 113.937 156 C 114.212 156, 111.766 153.300, 108.500 150 C 105.234 146.700, 102.338 144, 102.063 144 C 101.788 144, 104.234 146.700, 107.500 150 M 142.978 155.750 L 134.500 164.500 143.250 156.022 C 151.377 148.148, 152.456 147, 151.728 147 C 151.578 147, 147.641 150.938, 142.978 155.750 M 318.252 152.500 C 318.263 154.700, 318.468 155.482, 318.707 154.238 C 318.946 152.994, 318.937 151.194, 318.687 150.238 C 318.437 149.282, 318.241 150.300, 318.252 152.500 M 370.982 162.750 L 360.500 173.500 371.468 163 C 377.500 157.225, 382.637 152.387, 382.884 152.250 C 383.131 152.113, 382.913 152, 382.399 152 C 381.885 152, 376.747 156.838, 370.982 162.750 M 398 167.500 C 404.858 174.375, 410.695 180, 410.970 180 C 411.245 180, 405.858 174.375, 399 167.500 C 392.142 160.625, 386.305 155, 386.030 155 C 385.755 155, 391.142 160.625, 398 167.500 M 99.500 162 C 102.209 164.750, 104.650 167, 104.925 167 C 105.200 167, 103.209 164.750, 100.500 162 C 97.791 159.250, 95.350 157, 95.075 157 C 94.800 157, 96.791 159.250, 99.500 162 M 325 164.500 C 327.987 167.525, 330.657 170, 330.932 170 C 331.207 170, 328.987 167.525, 326 164.500 C 323.013 161.475, 320.343 159, 320.068 159 C 319.793 159, 322.013 161.475, 325 164.500 M 420.946 162.750 L 417.500 166.500 421.250 163.054 C 423.313 161.158, 425 159.471, 425 159.304 C 425 158.540, 424.154 159.260, 420.946 162.750 M 433.481 170.250 L 423.500 180.500 433.750 170.519 C 443.270 161.248, 444.455 160, 443.731 160 C 443.583 160, 438.971 164.613, 433.481 170.250 M 116.762 171.707 C 118.006 171.946, 119.806 171.937, 120.762 171.687 C 121.718 171.437, 120.700 171.241, 118.500 171.252 C 116.300 171.263, 115.518 171.468, 116.762 171.707 M 202.473 192.250 L 195.500 199.500 202.750 192.527 C 209.484 186.050, 210.457 185, 209.723 185 C 209.571 185, 206.308 188.262, 202.473 192.250 M 308.500 192 C 312.320 195.850, 315.671 199, 315.946 199 C 316.221 199, 313.320 195.850, 309.500 192 C 305.680 188.150, 302.329 185, 302.054 185 C 301.779 185, 304.680 188.150, 308.500 192 M 55.958 192.250 C 58.410 194.863, 60.548 197, 60.708 197 C 61.459 197, 60.665 196.102, 56.250 191.958 L 51.500 187.500 55.958 192.250 M 317.359 199.772 C 318.150 201.052, 324 205.381, 324 204.687 C 324 204.440, 322.348 202.977, 320.329 201.437 C 318.310 199.897, 316.973 199.148, 317.359 199.772 M 125.776 222.733 C 128.128 222.945, 131.728 222.942, 133.776 222.727 C 135.824 222.512, 133.900 222.339, 129.500 222.343 C 125.100 222.346, 123.424 222.522, 125.776 222.733 M 378.776 222.733 C 381.128 222.945, 384.728 222.942, 386.776 222.727 C 388.824 222.512, 386.900 222.339, 382.500 222.343 C 378.100 222.346, 376.424 222.522, 378.776 222.733 M 36 228.500 C 37.292 229.875, 38.574 231, 38.849 231 C 39.124 231, 38.292 229.875, 37 228.500 C 35.708 227.125, 34.426 226, 34.151 226 C 33.876 226, 34.708 227.125, 36 228.500 M 474.924 228.750 L 472.500 231.500 475.250 229.076 C 476.762 227.742, 478 226.505, 478 226.326 C 478 225.541, 477.190 226.180, 474.924 228.750 M 43 234.500 C 44.292 235.875, 45.574 237, 45.849 237 C 46.124 237, 45.292 235.875, 44 234.500 C 42.708 233.125, 41.426 232, 41.151 232 C 40.876 232, 41.708 233.125, 43 234.500 M 467.924 234.750 L 465.500 237.500 468.250 235.076 C 469.762 233.742, 471 232.505, 471 232.326 C 471 231.541, 470.190 232.180, 467.924 234.750 M 50 240.500 C 51.292 241.875, 52.574 243, 52.849 243 C 53.124 243, 52.292 241.875, 51 240.500 C 49.708 239.125, 48.426 238, 48.151 238 C 47.876 238, 48.708 239.125, 50 240.500 M 460.924 240.750 L 458.500 243.500 461.250 241.076 C 462.762 239.742, 464 238.505, 464 238.326 C 464 237.541, 463.190 238.180, 460.924 240.750 M 58 247.500 C 59.292 248.875, 60.574 250, 60.849 250 C 61.124 250, 60.292 248.875, 59 247.500 C 57.708 246.125, 56.426 245, 56.151 245 C 55.876 245, 56.708 246.125, 58 247.500 M 452.924 247.750 L 450.500 250.500 453.250 248.076 C 454.762 246.742, 456 245.505, 456 245.326 C 456 244.541, 455.190 245.180, 452.924 247.750 M 65 253.500 C 66.292 254.875, 67.574 256, 67.849 256 C 68.124 256, 67.292 254.875, 66 253.500 C 64.708 252.125, 63.426 251, 63.151 251 C 62.876 251, 63.708 252.125, 65 253.500 M 445.924 253.750 L 443.500 256.500 446.250 254.076 C 447.762 252.742, 449 251.505, 449 251.326 C 449 250.541, 448.190 251.180, 445.924 253.750 M 72 259.500 C 73.292 260.875, 74.574 262, 74.849 262 C 75.124 262, 74.292 260.875, 73 259.500 C 71.708 258.125, 70.426 257, 70.151 257 C 69.876 257, 70.708 258.125, 72 259.500 M 438.437 260.250 L 435.500 263.500 438.750 260.563 C 440.538 258.948, 442 257.485, 442 257.313 C 442 256.540, 441.175 257.221, 438.437 260.250 M 80 266.500 C 81.292 267.875, 82.574 269, 82.849 269 C 83.124 269, 82.292 267.875, 81 266.500 C 79.708 265.125, 78.426 264, 78.151 264 C 77.876 264, 78.708 265.125, 80 266.500 M 430.924 266.750 L 428.500 269.500 431.250 267.076 C 432.762 265.742, 434 264.505, 434 264.326 C 434 263.541, 433.190 264.180, 430.924 266.750 M 87 272.500 C 88.292 273.875, 89.574 275, 89.849 275 C 90.124 275, 89.292 273.875, 88 272.500 C 86.708 271.125, 85.426 270, 85.151 270 C 84.876 270, 85.708 271.125, 87 272.500 M 423.924 272.750 L 421.500 275.500 424.250 273.076 C 426.820 270.810, 427.459 270, 426.674 270 C 426.495 270, 425.258 271.238, 423.924 272.750 M 94 278.500 C 95.292 279.875, 96.574 281, 96.849 281 C 97.124 281, 96.292 279.875, 95 278.500 C 93.708 277.125, 92.426 276, 92.151 276 C 91.876 276, 92.708 277.125, 94 278.500 M 416.437 279.250 L 413.500 282.500 416.750 279.563 C 418.538 277.948, 420 276.485, 420 276.313 C 420 275.540, 419.175 276.221, 416.437 279.250 M 137.250 279.689 C 138.213 279.941, 139.787 279.941, 140.750 279.689 C 141.713 279.438, 140.925 279.232, 139 279.232 C 137.075 279.232, 136.287 279.438, 137.250 279.689 M 371.250 279.689 C 372.212 279.941, 373.788 279.941, 374.750 279.689 C 375.712 279.438, 374.925 279.232, 373 279.232 C 371.075 279.232, 370.288 279.438, 371.250 279.689 M 130.004 283.496 C 128.714 284.869, 127.848 286.160, 128.079 286.364 C 128.311 286.569, 129.547 285.446, 130.826 283.868 C 133.689 280.338, 133.185 280.110, 130.004 283.496 M 102 285.500 C 103.292 286.875, 104.574 288, 104.849 288 C 105.124 288, 104.292 286.875, 103 285.500 C 101.708 284.125, 100.426 283, 100.151 283 C 99.876 283, 100.708 284.125, 102 285.500 M 408.924 285.750 L 406.500 288.500 409.250 286.076 C 411.820 283.810, 412.459 283, 411.674 283 C 411.495 283, 410.258 284.238, 408.924 285.750 M 127.232 291 C 127.232 292.925, 127.438 293.712, 127.689 292.750 C 127.941 291.788, 127.941 290.212, 127.689 289.250 C 127.438 288.288, 127.232 289.075, 127.232 291 M 384.232 291 C 384.232 292.925, 384.438 293.712, 384.689 292.750 C 384.941 291.788, 384.941 290.212, 384.689 289.250 C 384.438 288.288, 384.232 289.075, 384.232 291 M 109 291.500 C 110.292 292.875, 111.574 294, 111.849 294 C 112.124 294, 111.292 292.875, 110 291.500 C 108.708 290.125, 107.426 289, 107.151 289 C 106.876 289, 107.708 290.125, 109 291.500 M 401.924 291.750 L 399.500 294.500 402.250 292.076 C 403.762 290.742, 405 289.505, 405 289.326 C 405 288.541, 404.190 289.180, 401.924 291.750 M 142.500 312 C 150.185 319.700, 156.698 326, 156.973 326 C 157.248 326, 151.185 319.700, 143.500 312 C 135.815 304.300, 129.302 298, 129.027 298 C 128.752 298, 134.815 304.300, 142.500 312 M 368.487 312.250 L 354.500 326.500 368.750 312.513 C 381.988 299.520, 383.453 298, 382.737 298 C 382.592 298, 376.179 304.413, 368.487 312.250 M 132 321.500 C 139.961 329.475, 146.699 336, 146.974 336 C 147.249 336, 140.961 329.475, 133 321.500 C 125.039 313.525, 118.301 307, 118.026 307 C 117.751 307, 124.039 313.525, 132 321.500 M 378.987 321.750 L 364.500 336.500 379.250 322.013 C 387.363 314.045, 394 307.408, 394 307.263 C 394 306.547, 392.445 308.048, 378.987 321.750 M 210.958 335.250 C 213.410 337.863, 215.548 340, 215.708 340 C 216.459 340, 215.665 339.102, 211.250 334.958 L 206.500 330.500 210.958 335.250 M 298.437 337.250 L 295.500 340.500 298.750 337.563 C 301.779 334.825, 302.460 334, 301.687 334 C 301.515 334, 300.052 335.462, 298.437 337.250 M 96.958 348.250 C 99.410 350.863, 101.548 353, 101.708 353 C 102.459 353, 101.665 352.102, 97.250 347.958 L 92.500 343.500 96.958 348.250 M 414 348.500 C 411.571 350.975, 409.809 353, 410.084 353 C 410.359 353, 412.571 350.975, 415 348.500 C 417.429 346.025, 419.191 344, 418.916 344 C 418.641 344, 416.429 346.025, 414 348.500 M 227.430 390 C 227.430 402.925, 227.573 408.212, 227.747 401.750 C 227.921 395.288, 227.921 384.712, 227.747 378.250 C 227.573 371.788, 227.430 377.075, 227.430 390 M 284.430 390 C 284.430 402.925, 284.573 408.212, 284.747 401.750 C 284.921 395.288, 284.921 384.712, 284.747 378.250 C 284.573 371.788, 284.430 377.075, 284.430 390 M 183.909 427.750 C 219.769 427.954, 231.706 428.322, 232.909 429.260 C 234.316 430.357, 234.342 430.298, 233.128 428.750 C 231.850 427.121, 228.465 427.017, 184.128 427.240 L 136.500 427.480 183.909 427.750 M 278.872 428.750 C 277.658 430.298, 277.684 430.357, 279.091 429.260 C 280.294 428.322, 292.231 427.954, 328.091 427.750 L 375.500 427.480 327.872 427.240 C 283.535 427.017, 280.150 427.121, 278.872 428.750" stroke="none" fill="#050504" fill-rule="evenodd"/><path d="M 340.469 78.250 L 334.500 84.500 340.727 78.554 L 346.954 72.608 349.727 75.054 L 352.500 77.500 350.076 74.750 C 348.742 73.237, 347.378 72, 347.044 72 C 346.711 72, 343.751 74.813, 340.469 78.250 M 396 92.500 C 391.903 96.625, 388.775 100, 389.050 100 C 389.325 100, 392.903 96.625, 397 92.500 C 401.097 88.375, 404.225 85, 403.950 85 C 403.675 85, 400.097 88.375, 396 92.500 M 417 96.500 C 412.903 100.625, 409.775 104, 410.050 104 C 410.325 104, 413.903 100.625, 418 96.500 C 422.097 92.375, 425.225 89, 424.950 89 C 424.675 89, 421.097 92.375, 417 96.500 M 153.477 103.250 L 145.500 111.500 153.750 103.523 C 161.412 96.115, 162.456 95, 161.727 95 C 161.576 95, 157.864 98.713, 153.477 103.250 M 177.437 99.250 L 174.500 102.500 177.750 99.563 C 179.537 97.948, 181 96.485, 181 96.313 C 181 95.540, 180.175 96.221, 177.437 99.250 M 360.500 110 C 362.648 112.200, 364.631 114, 364.906 114 C 365.181 114, 363.648 112.200, 361.500 110 C 359.352 107.800, 357.369 106, 357.094 106 C 356.819 106, 358.352 107.800, 360.500 110 M 352.978 134.750 L 344.500 143.500 353.250 135.022 C 358.063 130.359, 362 126.422, 362 126.272 C 362 125.544, 360.852 126.623, 352.978 134.750 M 372.462 140.250 L 367.500 145.500 372.750 140.538 C 375.637 137.808, 378 135.446, 378 135.288 C 378 134.541, 377.074 135.372, 372.462 140.250 M 134.966 142.750 L 129.500 148.500 135.250 143.034 C 140.592 137.956, 141.458 137, 140.716 137 C 140.560 137, 137.972 139.588, 134.966 142.750 M 425.500 149 C 427.648 151.200, 429.631 153, 429.906 153 C 430.181 153, 428.648 151.200, 426.500 149 C 424.352 146.800, 422.369 145, 422.094 145 C 421.819 145, 423.352 146.800, 425.500 149 M 108 149.313 C 108 149.485, 109.463 150.948, 111.250 152.563 L 114.500 155.500 111.563 152.250 C 108.825 149.221, 108 148.540, 108 149.313 M 401 149.275 C 401 149.426, 404.488 152.914, 408.750 157.025 L 416.500 164.500 409.025 156.750 C 402.082 149.552, 401 148.544, 401 149.275 M 419.924 162.750 L 417.500 165.500 420.250 163.076 C 421.762 161.742, 423 160.505, 423 160.326 C 423 159.541, 422.190 160.180, 419.924 162.750 M 110 293.500 C 111.292 294.875, 112.574 296, 112.849 296 C 113.124 296, 112.292 294.875, 111 293.500 C 109.708 292.125, 108.426 291, 108.151 291 C 107.876 291, 108.708 292.125, 110 293.500 M 400.924 293.750 L 398.500 296.500 401.250 294.076 C 402.762 292.742, 404 291.505, 404 291.326 C 404 290.541, 403.190 291.180, 400.924 293.750 M 367.986 311.750 L 354.500 325.500 368.250 312.014 C 381.023 299.486, 382.453 298, 381.736 298 C 381.591 298, 375.403 304.188, 367.986 311.750 M 143.500 312 C 150.634 319.150, 156.696 325, 156.971 325 C 157.246 325, 151.634 319.150, 144.500 312 C 137.366 304.850, 131.304 299, 131.029 299 C 130.754 299, 136.366 304.850, 143.500 312 M 413.946 347.750 L 410.500 351.500 414.250 348.054 C 416.313 346.158, 418 344.471, 418 344.304 C 418 343.540, 417.154 344.260, 413.946 347.750 M 97 347.500 C 98.292 348.875, 99.574 350, 99.849 350 C 100.124 350, 99.292 348.875, 98 347.500 C 96.708 346.125, 95.426 345, 95.151 345 C 94.876 345, 95.708 346.125, 97 347.500 M 278.453 468 C 278.453 488.625, 278.586 497.063, 278.749 486.750 C 278.911 476.438, 278.911 459.563, 278.749 449.250 C 278.586 438.938, 278.453 447.375, 278.453 468 M 233.355 496.500 C 233.352 501.450, 233.521 503.601, 233.731 501.280 C 233.940 498.959, 233.943 494.909, 233.736 492.280 C 233.530 489.651, 233.358 491.550, 233.355 496.500" stroke="none" fill="#d9d3c4" fill-rule="evenodd"/></svg>