<svg xmlns="http://www.w3.org/2000/svg" width="512" height="512" viewBox="0 0 512 512" version="1.1"><path d="M 12.252 2.082 C 3.009 6.706, -0 12.975, -0 27.607 L 0 38.279 5.250 37.648 C 8.138 37.301, 11.512 37.013, 12.750 37.009 C 14.916 37, 15 36.664, 15 28 C 15 14.278, 13.333 15, 45 15 C 69.667 15, 71.103 15.103, 73 17 C 74.897 18.897, 75 20.333, 75 45 C 75 69.667, 74.897 71.103, 73 73 C 71.103 74.897, 69.667 75, 45 75 C 13.333 75, 15 75.722, 15 62 C 15 53.336, 14.916 53, 12.750 52.991 C 11.512 52.987, 8.098 52.694, 5.163 52.342 L -0.174 51.701 0.163 63.678 C 0.476 74.793, 0.699 75.956, 3.259 79.819 C 4.776 82.109, 7.893 85.224, 10.186 86.741 L 14.354 89.500 45 89.500 L 75.646 89.500 79.814 86.741 C 82.107 85.224, 85.224 82.107, 86.741 79.814 L 89.500 75.646 89.500 45 L 89.500 14.354 86.741 10.186 C 85.224 7.893, 82.108 4.776, 79.817 3.259 L 75.651 0.500 46.075 0.228 C 17.629 -0.033, 16.338 0.037, 12.252 2.082 M 152.219 2.437 C 136.313 8.346, 125.679 21.174, 122.808 37.913 C 118.179 64.906, 139.449 90, 166.956 90 C 190.020 90, 208.429 74.368, 212.206 51.578 C 214.962 34.942, 206.527 16.322, 192.014 7.009 C 180.676 -0.266, 164.500 -2.125, 152.219 2.437 M 257.271 2.095 C 251.557 4.923, 247.401 9.910, 245.543 16.167 C 243.320 23.652, 243.320 66.348, 245.543 73.833 C 247.413 80.128, 251.627 85.157, 257.360 87.932 C 261.372 89.874, 263.363 90, 290.110 90 L 318.588 90 324.001 86.750 C 328.176 84.243, 330.052 82.274, 332.207 78.136 L 335 72.772 335 45 L 335 17.228 332.207 11.864 C 330.052 7.726, 328.176 5.757, 324.001 3.250 L 318.588 0 290.044 0.001 C 263.090 0.002, 261.264 0.118, 257.271 2.095 M 157.764 15.996 C 149.635 18.443, 141.212 27.017, 138.516 35.588 C 134.875 47.165, 138.396 59.777, 147.508 67.798 C 153.131 72.747, 159.384 75, 167.500 75 C 179.686 75, 189.393 69.008, 194.694 58.214 C 200.597 46.193, 197.530 31.038, 187.388 22.111 C 184.914 19.932, 180.809 17.441, 178.266 16.575 C 173.396 14.915, 162.385 14.604, 157.764 15.996 M 261.405 17.105 C 259.635 19.060, 259.500 21.042, 259.500 45 C 259.500 68.958, 259.635 70.940, 261.405 72.895 C 263.250 74.934, 264.142 75, 289.655 75 C 314.667 75, 316.101 74.899, 318 73 C 319.897 71.103, 320 69.667, 320 45 C 320 20.333, 319.897 18.897, 318 17 C 316.101 15.101, 314.667 15, 289.655 15 C 264.142 15, 263.250 15.066, 261.405 17.105 M 37.903 123.067 C 21.526 125.474, 7.562 137.518, 1.976 154.054 C 0.185 159.355, -0.134 162.187, 0.181 170 C 0.507 178.110, 1.027 180.489, 3.733 186.259 C 7.301 193.865, 15.271 202.902, 21.772 206.712 C 35.825 214.948, 54.175 214.948, 68.228 206.712 C 74.736 202.899, 82.700 193.866, 86.262 186.259 C 90.572 177.054, 91.283 164.584, 88.098 154.096 C 81.760 133.231, 60.052 119.812, 37.903 123.067 M 134.196 123.897 C 127.999 126.038, 123.788 129.741, 120.997 135.505 C 119.144 139.334, 119 141.687, 119 168.110 L 119 196.588 122.250 202.001 C 124.757 206.176, 126.726 208.052, 130.864 210.207 C 136.133 212.950, 136.535 213, 153.549 213 L 170.869 213 166.658 220.389 C 164.341 224.453, 160.884 232.054, 158.975 237.280 L 155.504 246.783 150.666 248.523 C 144.205 250.846, 135.890 257.311, 131.069 263.760 C 112.575 288.495, 124.486 324.868, 153.999 333.783 L 159.500 335.444 164.820 346.272 C 173.197 363.323, 185.953 379.102, 201.256 391.342 C 244.190 425.685, 305.537 430.184, 353.227 402.488 C 357.477 400.019, 361.123 398, 361.329 398 C 361.536 398, 372.215 409.250, 385.060 423 C 397.905 436.750, 408.693 448, 409.033 448 C 409.907 448, 414 443.533, 414 442.579 C 414 442.144, 415.132 440.897, 416.516 439.808 L 419.033 437.829 411.336 429.352 L 403.640 420.874 412.300 412.214 L 420.960 403.555 424.730 407.101 C 426.803 409.052, 442.456 423.709, 459.513 439.672 C 499.242 476.853, 497.320 474.639, 496.811 482.624 C 496.494 487.601, 495.891 489.491, 493.955 491.563 C 490.350 495.421, 486.693 497, 481.362 497 C 475.232 497, 473.001 495.380, 460.520 481.870 L 450.540 471.067 447.965 473.533 C 446.549 474.890, 444.931 476, 444.370 476 C 443.808 476, 442.370 477.042, 441.174 478.315 L 439 480.629 451.733 493.969 C 466.589 509.532, 470.566 511.975, 481.072 511.990 C 490.717 512.005, 496.479 509.670, 503.074 503.074 C 509.670 496.479, 512.005 490.717, 511.990 481.072 C 511.970 467.787, 513.681 469.724, 447.500 408.009 C 425.500 387.494, 405.325 368.594, 402.668 366.010 L 397.835 361.311 402.941 352.408 C 429.258 306.509, 425.976 248.152, 394.683 205.585 C 379.431 184.838, 355.236 166.563, 332.320 158.482 C 327.647 156.834, 326.972 156.208, 325.421 152.078 C 314.354 122.608, 277.083 113.116, 253.088 133.656 C 247.697 138.271, 241.746 147.265, 240.031 153.388 C 238.762 157.922, 238.715 157.959, 227.340 163.429 C 221.060 166.449, 214.633 169.837, 213.057 170.960 C 211.481 172.082, 209.923 173, 209.596 173 C 209.268 173, 209 165.492, 209 156.316 C 209 137.518, 208.021 133.860, 201.446 128.087 C 195.419 122.795, 190.420 121.996, 163.568 122.033 C 142.889 122.061, 138.753 122.323, 134.196 123.897 M 38.962 137.882 C 24.504 140.883, 15.020 152.814, 15.020 168 C 15.020 176.917, 17.618 183.410, 23.518 189.233 C 29.807 195.442, 35.156 197.500, 45 197.500 C 54.854 197.500, 60.228 195.429, 66.448 189.233 C 72.290 183.414, 74.281 178.671, 74.793 169.352 C 75.183 162.239, 74.926 160.519, 72.769 155.806 C 69.397 148.442, 64.851 143.546, 58.682 140.637 C 52.965 137.941, 44.425 136.748, 38.962 137.882 M 138.465 137.926 C 133.766 139.889, 133.519 141.097, 133.162 163.821 C 132.784 187.871, 133.271 193.271, 136.072 196.072 C 137.864 197.864, 139.599 197.998, 160.750 197.977 L 183.500 197.953 188.750 192.055 L 194 186.156 194 163.733 C 194 142.214, 193.915 141.233, 191.897 139.405 C 189.963 137.653, 187.811 137.483, 165.147 137.288 C 151.591 137.172, 139.584 137.459, 138.465 137.926 M 277 137.904 C 268.569 139.769, 260.445 145.305, 257.348 151.294 L 255.799 154.290 259.149 153.599 C 272.046 150.938, 296.366 150.435, 306.250 152.624 C 310.312 153.524, 309.710 151.614, 304.192 146.096 C 297.457 139.362, 286.007 135.912, 277 137.904 M 271.500 165.624 C 254.778 168.153, 243.312 171.752, 229.658 178.760 C 196.098 195.983, 172.684 228.578, 166.383 266.844 C 163.401 284.956, 165.851 309.997, 172.269 327 C 187.096 366.283, 218.891 393.749, 260.500 403.220 C 271.500 405.724, 294.566 406.185, 306 404.130 C 323.048 401.066, 341.931 393.183, 355.850 383.321 C 369.801 373.435, 385.512 355.040, 393.275 339.500 C 396.969 332.106, 401.694 318.156, 403.686 308.765 C 406.110 297.335, 406.091 273.601, 403.649 262 C 393.510 213.832, 357.872 177.897, 309.838 167.407 C 302.725 165.854, 277.681 164.689, 271.500 165.624 M 267.334 182.481 C 247.288 186.118, 228.975 195.416, 214.120 209.500 C 204.779 218.355, 199.056 225.788, 193.416 236.391 C 168.957 282.369, 181.527 338.071, 223.388 369.209 C 257.647 394.692, 303.950 396.553, 340.618 373.919 C 352.307 366.705, 366.705 352.307, 373.919 340.618 C 398.998 299.989, 393.794 248.380, 361.125 213.750 C 337.192 188.379, 301.115 176.351, 267.334 182.481 M 270.660 195.985 C 241.505 201.254, 217.516 219.186, 204.146 245.703 C 195.814 262.228, 192.938 284.569, 196.767 303.010 C 207.957 356.893, 262.380 388.273, 314.479 370.882 C 347.087 359.997, 370.448 331.330, 375.056 296.546 C 380.912 252.334, 351.945 209.407, 308.500 197.916 C 299.551 195.549, 278.902 194.496, 270.660 195.985 M 248.707 234.612 C 242.181 236.618, 236.557 242.387, 234.555 249.126 C 233.295 253.370, 233 260.219, 233 285.239 C 233 304.447, 233.417 317.771, 234.104 320.499 C 235.442 325.812, 240.836 332.365, 246.068 335.034 C 249.684 336.880, 252.102 337, 285.510 337 C 316.275 337, 321.533 336.781, 324.300 335.386 C 328.799 333.116, 332.859 329.130, 335.092 324.790 C 336.864 321.344, 337 318.548, 337 285.500 C 337 252.102, 336.879 249.684, 335.034 246.068 C 332.365 240.836, 325.812 235.442, 320.499 234.104 C 313.485 232.338, 254.754 232.754, 248.707 234.612 M 16.994 245.905 C 9.700 248.209, 4.154 252.991, 1.553 259.218 C 0.273 262.281, 0.004 267.827, 0.022 290.718 C 0.042 315.434, 0.245 318.941, 1.866 322.500 C 4.208 327.644, 10.798 333.572, 15.679 334.928 C 20.740 336.333, 69.260 336.333, 74.321 334.928 C 79.202 333.572, 85.792 327.644, 88.134 322.500 C 89.755 318.941, 89.958 315.434, 89.978 290.718 C 89.996 267.827, 89.727 262.281, 88.447 259.218 C 86.477 254.502, 82.605 250.413, 77.500 247.658 C 73.713 245.615, 72.060 245.490, 46.500 245.306 C 31.650 245.200, 18.372 245.469, 16.994 245.905 M 252.020 248.257 C 247.119 250.791, 246.955 252.121, 247.237 286.840 L 247.500 319.179 249.861 321.090 C 252.079 322.885, 254.233 323, 285.611 323 C 317.667 323, 319.080 322.920, 321 321 C 322.920 319.080, 323 317.667, 323 285.611 C 323 254.233, 322.885 252.079, 321.090 249.861 L 319.179 247.500 286.840 247.237 C 262.058 247.035, 253.920 247.274, 252.020 248.257 M 17.635 262.073 L 15 264.145 15 290.398 C 15 316.547, 15.009 316.660, 17.314 318.826 C 19.566 320.941, 20.323 321, 45.140 321 C 70.514 321, 70.663 320.988, 72.826 318.686 C 74.944 316.431, 75 315.693, 75 290.258 L 75 264.145 72.365 262.073 C 69.861 260.103, 68.505 260, 45 260 C 21.495 260, 20.139 260.103, 17.635 262.073 M 146.173 268.827 C 135.436 279.564, 134.111 296.570, 143.049 308.909 C 145.758 312.649, 153.552 318.812, 154.414 317.896 C 154.619 317.678, 154.066 314.350, 153.185 310.500 C 152.026 305.431, 151.573 298.190, 151.542 284.250 C 151.519 273.662, 151.162 265, 150.750 265 C 150.338 265, 148.278 266.722, 146.173 268.827 M 380.061 380.439 L 372.672 387.877 380.734 396.689 C 385.168 401.535, 389.983 406.606, 391.433 407.957 L 394.070 410.415 402.285 402.130 L 410.500 393.846 399.500 383.433 C 393.450 377.706, 388.264 373.016, 387.975 373.010 C 387.686 373.005, 384.125 376.347, 380.061 380.439 M 427.500 452 C 426.505 453.100, 425.163 454, 424.519 454 C 423.875 454, 422.283 455.135, 420.980 456.522 L 418.611 459.043 423.972 464.471 L 429.332 469.899 432.178 467.873 C 433.743 466.759, 434.781 465.454, 434.484 464.974 C 434.187 464.494, 435.314 463.088, 436.988 461.851 L 440.031 459.601 435.303 454.800 C 432.703 452.160, 430.291 450, 429.943 450 C 429.595 450, 428.495 450.900, 427.500 452" stroke="none" fill="#000000" fill-rule="evenodd"/><path d="M 8.750 52.706 C 9.988 52.944, 12.012 52.944, 13.250 52.706 C 14.488 52.467, 13.475 52.272, 11 52.272 C 8.525 52.272, 7.512 52.467, 8.750 52.706 M 274.929 166.149 C 228.405 169.634, 187.044 202.059, 171.849 246.957 C 167.580 259.571, 165.770 270.881, 165.760 285 C 165.737 316.761, 176.865 345.113, 198.144 367.515 C 238.977 410.501, 303.331 417.406, 353.500 384.184 C 362.617 378.147, 378.177 362.489, 384.489 353 C 394.382 338.127, 400.690 322.492, 403.652 305.500 C 405.974 292.181, 405.057 268.714, 401.718 256 C 389.701 210.249, 352.621 175.655, 307 167.635 C 295.939 165.691, 286.737 165.264, 274.929 166.149 M 273.512 181.107 C 238.911 184.749, 206.702 207.478, 191.211 239.185 C 169.127 284.389, 182.146 338.848, 222.263 369.077 C 259.209 396.917, 310.476 397.209, 347.817 369.792 C 388.757 339.732, 401.894 283.405, 378.697 237.385 C 363.041 206.325, 331.216 184.662, 295.919 181.040 C 284.812 179.900, 284.984 179.899, 273.512 181.107 M 185.032 194.465 C 182.935 196.698, 181.809 196.962, 173.108 197.256 L 163.500 197.581 173.063 197.791 C 182.499 197.997, 182.664 197.960, 185.500 195 C 187.081 193.350, 188.143 192, 187.861 192 C 187.579 192, 186.306 193.109, 185.032 194.465 M 32.750 320.747 C 39.487 320.920, 50.513 320.920, 57.250 320.747 C 63.987 320.574, 58.475 320.432, 45 320.432 C 31.525 320.432, 26.012 320.574, 32.750 320.747 M 380.437 381.250 L 377.500 384.500 380.750 381.563 C 382.538 379.948, 384 378.485, 384 378.313 C 384 377.540, 383.175 378.221, 380.437 381.250 M 393 378.313 C 393 378.485, 394.462 379.948, 396.250 381.563 L 399.500 384.500 396.563 381.250 C 393.825 378.221, 393 377.540, 393 378.313 M 378 393.313 C 378 393.485, 379.462 394.948, 381.250 396.563 L 384.500 399.500 381.563 396.250 C 378.825 393.221, 378 392.540, 378 393.313 M 401.462 402.250 L 396.500 407.500 401.750 402.538 C 404.637 399.808, 407 397.446, 407 397.288 C 407 396.541, 406.074 397.372, 401.462 402.250 M 412.422 412.674 L 404.345 420.898 411.672 428.861 C 415.703 433.241, 419 437.185, 419 437.625 C 419 438.065, 417.789 439.390, 416.309 440.570 L 413.618 442.716 418.978 448.383 L 424.338 454.050 427.233 451.277 L 430.128 448.503 435.193 453.812 L 440.258 459.122 437.417 462.087 L 434.576 465.052 439.762 470.238 L 444.948 475.424 447.724 472.775 L 450.500 470.127 461.500 482.039 C 467.550 488.591, 473.918 494.637, 475.651 495.476 C 487.884 501.393, 501.765 487.102, 495.250 475.298 C 493.861 472.782, 430.073 412.068, 422.416 405.975 C 420.621 404.546, 419.991 404.968, 412.422 412.674" stroke="none" fill="#bababe" fill-rule="evenodd"/><path d="M 293 270.500 L 293 278 300.500 278 L 308 278 308 270.500 L 308 263 300.500 263 L 293 263 293 270.500 M 293 300.500 L 293 308 300.500 308 L 308 308 308 300.500 L 308 293 300.500 293 L 293 293 293 300.500" stroke="none" fill="#ffffff" fill-rule="evenodd"/><path d="M 12.252 2.082 C 3.009 6.706, -0 12.975, -0 27.607 L 0 38.279 5.250 37.648 C 8.138 37.301, 11.512 37.013, 12.750 37.009 C 14.916 37, 15 36.664, 15 28 C 15 14.278, 13.333 15, 45 15 C 69.667 15, 71.103 15.103, 73 17 C 74.897 18.897, 75 20.333, 75 45 C 75 69.667, 74.897 71.103, 73 73 C 71.103 74.897, 69.667 75, 45 75 C 13.333 75, 15 75.722, 15 62 C 15 53.336, 14.916 53, 12.750 52.991 C 11.512 52.987, 8.098 52.694, 5.163 52.342 L -0.174 51.701 0.163 63.678 C 0.476 74.793, 0.699 75.956, 3.259 79.819 C 4.776 82.109, 7.893 85.224, 10.186 86.741 L 14.354 89.500 45 89.500 L 75.646 89.500 79.814 86.741 C 82.107 85.224, 85.224 82.107, 86.741 79.814 L 89.500 75.646 89.500 45 L 89.500 14.354 86.741 10.186 C 85.224 7.893, 82.108 4.776, 79.817 3.259 L 75.651 0.500 46.075 0.228 C 17.629 -0.033, 16.338 0.037, 12.252 2.082 M 152.219 2.437 C 136.313 8.346, 125.679 21.174, 122.808 37.913 C 118.179 64.906, 139.449 90, 166.956 90 C 190.020 90, 208.429 74.368, 212.206 51.578 C 214.962 34.942, 206.527 16.322, 192.014 7.009 C 180.676 -0.266, 164.500 -2.125, 152.219 2.437 M 257.271 2.095 C 251.557 4.923, 247.401 9.910, 245.543 16.167 C 243.320 23.652, 243.320 66.348, 245.543 73.833 C 247.413 80.128, 251.627 85.157, 257.360 87.932 C 261.372 89.874, 263.363 90, 290.110 90 L 318.588 90 324.001 86.750 C 328.176 84.243, 330.052 82.274, 332.207 78.136 L 335 72.772 335 45 L 335 17.228 332.207 11.864 C 330.052 7.726, 328.176 5.757, 324.001 3.250 L 318.588 0 290.044 0.001 C 263.090 0.002, 261.264 0.118, 257.271 2.095 M 157.764 15.996 C 149.635 18.443, 141.212 27.017, 138.516 35.588 C 134.875 47.165, 138.396 59.777, 147.508 67.798 C 153.131 72.747, 159.384 75, 167.500 75 C 179.686 75, 189.393 69.008, 194.694 58.214 C 200.597 46.193, 197.530 31.038, 187.388 22.111 C 184.914 19.932, 180.809 17.441, 178.266 16.575 C 173.396 14.915, 162.385 14.604, 157.764 15.996 M 261.405 17.105 C 259.635 19.060, 259.500 21.042, 259.500 45 C 259.500 68.958, 259.635 70.940, 261.405 72.895 C 263.250 74.934, 264.142 75, 289.655 75 C 314.667 75, 316.101 74.899, 318 73 C 319.897 71.103, 320 69.667, 320 45 C 320 20.333, 319.897 18.897, 318 17 C 316.101 15.101, 314.667 15, 289.655 15 C 264.142 15, 263.250 15.066, 261.405 17.105 M 37.903 123.067 C 21.526 125.474, 7.562 137.518, 1.976 154.054 C 0.185 159.355, -0.134 162.187, 0.181 170 C 0.507 178.110, 1.027 180.489, 3.733 186.259 C 7.301 193.865, 15.271 202.902, 21.772 206.712 C 35.825 214.948, 54.175 214.948, 68.228 206.712 C 74.736 202.899, 82.700 193.866, 86.262 186.259 C 90.572 177.054, 91.283 164.584, 88.098 154.096 C 81.760 133.231, 60.052 119.812, 37.903 123.067 M 134.196 123.897 C 127.999 126.038, 123.788 129.741, 120.997 135.505 C 119.144 139.334, 119 141.687, 119 168.110 L 119 196.588 122.250 202.001 C 124.757 206.176, 126.726 208.052, 130.864 210.207 C 136.133 212.950, 136.535 213, 153.549 213 L 170.869 213 166.658 220.389 C 164.341 224.453, 160.884 232.054, 158.975 237.280 L 155.504 246.783 150.666 248.523 C 144.205 250.846, 135.890 257.311, 131.069 263.760 C 112.575 288.495, 124.486 324.868, 153.999 333.783 L 159.500 335.444 164.820 346.272 C 173.197 363.323, 185.953 379.102, 201.256 391.342 C 244.190 425.685, 305.537 430.184, 353.227 402.488 C 357.477 400.019, 361.123 398, 361.329 398 C 361.536 398, 372.215 409.250, 385.060 423 C 397.905 436.750, 408.693 448, 409.033 448 C 409.907 448, 414 443.533, 414 442.579 C 414 442.144, 415.132 440.897, 416.516 439.808 L 419.033 437.829 411.336 429.352 L 403.640 420.874 412.300 412.214 L 420.960 403.555 424.730 407.101 C 426.803 409.052, 442.456 423.709, 459.513 439.672 C 499.242 476.853, 497.320 474.639, 496.811 482.624 C 496.494 487.601, 495.891 489.491, 493.955 491.563 C 490.350 495.421, 486.693 497, 481.362 497 C 475.232 497, 473.001 495.380, 460.520 481.870 L 450.540 471.067 447.965 473.533 C 446.549 474.890, 444.931 476, 444.370 476 C 443.808 476, 442.370 477.042, 441.174 478.315 L 439 480.629 451.733 493.969 C 466.589 509.532, 470.566 511.975, 481.072 511.990 C 490.717 512.005, 496.479 509.670, 503.074 503.074 C 509.670 496.479, 512.005 490.717, 511.990 481.072 C 511.970 467.787, 513.681 469.724, 447.500 408.009 C 425.500 387.494, 405.325 368.594, 402.668 366.010 L 397.835 361.311 402.941 352.408 C 429.258 306.509, 425.976 248.152, 394.683 205.585 C 379.431 184.838, 355.236 166.563, 332.320 158.482 C 327.647 156.834, 326.972 156.208, 325.421 152.078 C 314.354 122.608, 277.083 113.116, 253.088 133.656 C 247.697 138.271, 241.746 147.265, 240.031 153.388 C 238.762 157.922, 238.715 157.959, 227.340 163.429 C 221.060 166.449, 214.633 169.837, 213.057 170.960 C 211.481 172.082, 209.923 173, 209.596 173 C 209.268 173, 209 165.492, 209 156.316 C 209 137.518, 208.021 133.860, 201.446 128.087 C 195.419 122.795, 190.420 121.996, 163.568 122.033 C 142.889 122.061, 138.753 122.323, 134.196 123.897 M 38.962 137.882 C 24.504 140.883, 15.020 152.814, 15.020 168 C 15.020 176.917, 17.618 183.410, 23.518 189.233 C 29.807 195.442, 35.156 197.500, 45 197.500 C 54.854 197.500, 60.228 195.429, 66.448 189.233 C 72.290 183.414, 74.281 178.671, 74.793 169.352 C 75.183 162.239, 74.926 160.519, 72.769 155.806 C 69.397 148.442, 64.851 143.546, 58.682 140.637 C 52.965 137.941, 44.425 136.748, 38.962 137.882 M 138.465 137.926 C 133.766 139.889, 133.519 141.097, 133.162 163.821 C 132.784 187.871, 133.271 193.271, 136.072 196.072 C 137.864 197.864, 139.599 197.998, 160.750 197.977 L 183.500 197.953 188.750 192.055 L 194 186.156 194 163.733 C 194 142.214, 193.915 141.233, 191.897 139.405 C 189.963 137.653, 187.811 137.483, 165.147 137.288 C 151.591 137.172, 139.584 137.459, 138.465 137.926 M 277 137.904 C 268.569 139.769, 260.445 145.305, 257.348 151.294 L 255.799 154.290 259.149 153.599 C 272.046 150.938, 296.366 150.435, 306.250 152.624 C 310.312 153.524, 309.710 151.614, 304.192 146.096 C 297.457 139.362, 286.007 135.912, 277 137.904 M 271.500 165.624 C 254.778 168.153, 243.312 171.752, 229.658 178.760 C 196.098 195.983, 172.684 228.578, 166.383 266.844 C 163.401 284.956, 165.851 309.997, 172.269 327 C 187.096 366.283, 218.891 393.749, 260.500 403.220 C 271.500 405.724, 294.566 406.185, 306 404.130 C 323.048 401.066, 341.931 393.183, 355.850 383.321 C 369.801 373.435, 385.512 355.040, 393.275 339.500 C 396.969 332.106, 401.694 318.156, 403.686 308.765 C 406.110 297.335, 406.091 273.601, 403.649 262 C 393.510 213.832, 357.872 177.897, 309.838 167.407 C 302.725 165.854, 277.681 164.689, 271.500 165.624 M 267.334 182.481 C 247.288 186.118, 228.975 195.416, 214.120 209.500 C 204.779 218.355, 199.056 225.788, 193.416 236.391 C 168.957 282.369, 181.527 338.071, 223.388 369.209 C 257.647 394.692, 303.950 396.553, 340.618 373.919 C 352.307 366.705, 366.705 352.307, 373.919 340.618 C 398.998 299.989, 393.794 248.380, 361.125 213.750 C 337.192 188.379, 301.115 176.351, 267.334 182.481 M 270.660 195.985 C 241.505 201.254, 217.516 219.186, 204.146 245.703 C 195.814 262.228, 192.938 284.569, 196.767 303.010 C 207.957 356.893, 262.380 388.273, 314.479 370.882 C 347.087 359.997, 370.448 331.330, 375.056 296.546 C 380.912 252.334, 351.945 209.407, 308.500 197.916 C 299.551 195.549, 278.902 194.496, 270.660 195.985 M 248.707 234.612 C 242.181 236.618, 236.557 242.387, 234.555 249.126 C 233.295 253.370, 233 260.219, 233 285.239 C 233 304.447, 233.417 317.771, 234.104 320.499 C 235.442 325.812, 240.836 332.365, 246.068 335.034 C 249.684 336.880, 252.102 337, 285.510 337 C 316.275 337, 321.533 336.781, 324.300 335.386 C 328.799 333.116, 332.859 329.130, 335.092 324.790 C 336.864 321.344, 337 318.548, 337 285.500 C 337 252.102, 336.879 249.684, 335.034 246.068 C 332.365 240.836, 325.812 235.442, 320.499 234.104 C 313.485 232.338, 254.754 232.754, 248.707 234.612 M 16.994 245.905 C 9.700 248.209, 4.154 252.991, 1.553 259.218 C 0.273 262.281, 0.004 267.827, 0.022 290.718 C 0.042 315.434, 0.245 318.941, 1.866 322.500 C 4.208 327.644, 10.798 333.572, 15.679 334.928 C 20.740 336.333, 69.260 336.333, 74.321 334.928 C 79.202 333.572, 85.792 327.644, 88.134 322.500 C 89.755 318.941, 89.958 315.434, 89.978 290.718 C 89.996 267.827, 89.727 262.281, 88.447 259.218 C 86.477 254.502, 82.605 250.413, 77.500 247.658 C 73.713 245.615, 72.060 245.490, 46.500 245.306 C 31.650 245.200, 18.372 245.469, 16.994 245.905 M 252.020 248.257 C 247.119 250.791, 246.955 252.121, 247.237 286.840 L 247.500 319.179 249.861 321.090 C 252.079 322.885, 254.233 323, 285.611 323 C 317.667 323, 319.080 322.920, 321 321 C 322.920 319.080, 323 317.667, 323 285.611 C 323 254.233, 322.885 252.079, 321.090 249.861 L 319.179 247.500 286.840 247.237 C 262.058 247.035, 253.920 247.274, 252.020 248.257 M 17.635 262.073 L 15 264.145 15 290.398 C 15 316.547, 15.009 316.660, 17.314 318.826 C 19.566 320.941, 20.323 321, 45.140 321 C 70.514 321, 70.663 320.988, 72.826 318.686 C 74.944 316.431, 75 315.693, 75 290.258 L 75 264.145 72.365 262.073 C 69.861 260.103, 68.505 260, 45 260 C 21.495 260, 20.139 260.103, 17.635 262.073 M 146.173 268.827 C 135.436 279.564, 134.111 296.570, 143.049 308.909 C 145.758 312.649, 153.552 318.812, 154.414 317.896 C 154.619 317.678, 154.066 314.350, 153.185 310.500 C 152.026 305.431, 151.573 298.190, 151.542 284.250 C 151.519 273.662, 151.162 265, 150.750 265 C 150.338 265, 148.278 266.722, 146.173 268.827 M 380.061 380.439 L 372.672 387.877 380.734 396.689 C 385.168 401.535, 389.983 406.606, 391.433 407.957 L 394.070 410.415 402.285 402.130 L 410.500 393.846 399.500 383.433 C 393.450 377.706, 388.264 373.016, 387.975 373.010 C 387.686 373.005, 384.125 376.347, 380.061 380.439 M 427.500 452 C 426.505 453.100, 425.163 454, 424.519 454 C 423.875 454, 422.283 455.135, 420.980 456.522 L 418.611 459.043 423.972 464.471 L 429.332 469.899 432.178 467.873 C 433.743 466.759, 434.781 465.454, 434.484 464.974 C 434.187 464.494, 435.314 463.088, 436.988 461.851 L 440.031 459.601 435.303 454.800 C 432.703 452.160, 430.291 450, 429.943 450 C 429.595 450, 428.495 450.900, 427.500 452" stroke="none" fill="#000000" fill-rule="evenodd"/><path d="M 8.750 52.706 C 9.988 52.944, 12.012 52.944, 13.250 52.706 C 14.488 52.467, 13.475 52.272, 11 52.272 C 8.525 52.272, 7.512 52.467, 8.750 52.706 M 274.929 166.149 C 228.405 169.634, 187.044 202.059, 171.849 246.957 C 167.580 259.571, 165.770 270.881, 165.760 285 C 165.737 316.761, 176.865 345.113, 198.144 367.515 C 238.977 410.501, 303.331 417.406, 353.500 384.184 C 362.617 378.147, 378.177 362.489, 384.489 353 C 394.382 338.127, 400.690 322.492, 403.652 305.500 C 405.974 292.181, 405.057 268.714, 401.718 256 C 389.701 210.249, 352.621 175.655, 307 167.635 C 295.939 165.691, 286.737 165.264, 274.929 166.149 M 273.512 181.107 C 238.911 184.749, 206.702 207.478, 191.211 239.185 C 169.127 284.389, 182.146 338.848, 222.263 369.077 C 259.209 396.917, 310.476 397.209, 347.817 369.792 C 388.757 339.732, 401.894 283.405, 378.697 237.385 C 363.041 206.325, 331.216 184.662, 295.919 181.040 C 284.812 179.900, 284.984 179.899, 273.512 181.107 M 185.032 194.465 C 182.935 196.698, 181.809 196.962, 173.108 197.256 L 163.500 197.581 173.063 197.791 C 182.499 197.997, 182.664 197.960, 185.500 195 C 187.081 193.350, 188.143 192, 187.861 192 C 187.579 192, 186.306 193.109, 185.032 194.465 M 32.750 320.747 C 39.487 320.920, 50.513 320.920, 57.250 320.747 C 63.987 320.574, 58.475 320.432, 45 320.432 C 31.525 320.432, 26.012 320.574, 32.750 320.747 M 380.437 381.250 L 377.500 384.500 380.750 381.563 C 382.538 379.948, 384 378.485, 384 378.313 C 384 377.540, 383.175 378.221, 380.437 381.250 M 393 378.313 C 393 378.485, 394.462 379.948, 396.250 381.563 L 399.500 384.500 396.563 381.250 C 393.825 378.221, 393 377.540, 393 378.313 M 378 393.313 C 378 393.485, 379.462 394.948, 381.250 396.563 L 384.500 399.500 381.563 396.250 C 378.825 393.221, 378 392.540, 378 393.313 M 401.462 402.250 L 396.500 407.500 401.750 402.538 C 404.637 399.808, 407 397.446, 407 397.288 C 407 396.541, 406.074 397.372, 401.462 402.250 M 412.422 412.674 L 404.345 420.898 411.672 428.861 C 415.703 433.241, 419 437.185, 419 437.625 C 419 438.065, 417.789 439.390, 416.309 440.570 L 413.618 442.716 418.978 448.383 L 424.338 454.050 427.233 451.277 L 430.128 448.503 435.193 453.812 L 440.258 459.122 437.417 462.087 L 434.576 465.052 439.762 470.238 L 444.948 475.424 447.724 472.775 L 450.500 470.127 461.500 482.039 C 467.550 488.591, 473.918 494.637, 475.651 495.476 C 487.884 501.393, 501.765 487.102, 495.250 475.298 C 493.861 472.782, 430.073 412.068, 422.416 405.975 C 420.621 404.546, 419.991 404.968, 412.422 412.674" stroke="none" fill="#bababe" fill-rule="evenodd"/><path d="M 65.500 147 C 67.648 149.200, 69.631 151, 69.906 151 C 70.181 151, 68.648 149.200, 66.500 147 C 64.352 144.800, 62.369 143, 62.094 143 C 61.819 143, 63.352 144.800, 65.500 147 M 281.776 150.733 C 284.128 150.945, 287.728 150.942, 289.776 150.727 C 291.824 150.512, 289.900 150.339, 285.500 150.343 C 281.100 150.346, 279.424 150.522, 281.776 150.733 M 274.679 196.056 C 245.781 199.415, 218.078 219.083, 205.037 245.500 C 198.122 259.508, 196.501 267.101, 196.501 285.500 C 196.501 303.701, 198.089 311.265, 204.644 324.291 C 216.513 347.878, 234.276 363.053, 260 371.582 C 267.906 374.203, 269.653 374.404, 285 374.450 C 303.558 374.506, 308.327 373.560, 322.619 366.987 C 343.036 357.596, 357.559 343.077, 366.999 322.619 C 373.213 309.151, 374.501 302.682, 374.490 285 C 374.481 271.819, 374.135 268.303, 372.175 261.500 C 361.938 225.955, 332.152 200.549, 295.500 196.099 C 285.631 194.900, 284.639 194.898, 274.679 196.056 M 246.500 234.900 C 244.300 235.921, 241.060 238.273, 239.301 240.128 C 233.094 246.670, 232.998 247.366, 233.022 285.718 C 233.042 317.344, 233.211 320.868, 234.886 324.556 C 237.154 329.549, 243.683 335.289, 248.858 336.839 C 251.466 337.621, 263.646 337.997, 286.116 337.990 C 319.099 337.981, 319.560 337.952, 324.500 335.623 C 330.458 332.813, 333.174 330.048, 335.916 324 C 337.837 319.762, 337.957 317.555, 337.978 286.116 C 337.993 263.612, 337.622 251.470, 336.839 248.858 C 335.289 243.683, 329.549 237.154, 324.556 234.886 C 320.863 233.209, 317.366 233.044, 285.500 233.044 C 253.509 233.044, 250.156 233.203, 246.500 234.900" stroke="none" fill="#53d8f6" fill-rule="evenodd"/><path d="M 159.500 16.399 C 152.902 18.485, 149.441 20.692, 145.190 25.522 C 129.766 43.044, 139.844 70.258, 163.302 74.434 L 167.105 75.110 163.082 70.965 C 155.075 62.715, 150.992 49.922, 152.958 39.250 C 154.351 31.693, 158.119 24.149, 163.028 19.090 C 167.360 14.627, 166.698 14.122, 159.500 16.399 M 35.332 139.851 C 25.124 143.379, 18.117 151.303, 15.942 161.780 C 12.620 177.783, 23.444 193.901, 39.530 196.907 L 43.999 197.742 40.732 194.121 C 26.850 178.734, 26.560 157.197, 40.038 142.575 C 44.855 137.349, 44.002 136.855, 35.332 139.851 M 273.332 139.790 C 267.301 141.945, 262.055 145.709, 258.895 150.148 L 256.650 153.300 259.575 152.687 C 269.073 150.697, 286.350 149.828, 296.582 150.825 C 302.559 151.407, 307.561 151.773, 307.697 151.636 C 307.833 151.500, 306.598 149.755, 304.952 147.758 C 298.291 139.677, 283.838 136.035, 273.332 139.790 M 146.645 269.556 C 140.906 275.130, 138.718 280.314, 138.227 289.500 C 137.825 297.036, 137.995 297.875, 141.157 303.955 C 143.330 308.132, 146.056 311.585, 148.885 313.743 C 151.289 315.577, 153.378 316.947, 153.527 316.788 C 153.677 316.630, 153.189 313.350, 152.443 309.500 C 150.565 299.801, 149.696 280.844, 150.757 272.750 C 151.244 269.038, 151.342 266, 150.975 266 C 150.607 266, 148.659 267.600, 146.645 269.556" stroke="none" fill="#24eed7" fill-rule="evenodd"/><path d="M 162.976 19.144 C 158.116 24.152, 154.346 31.718, 152.958 39.250 C 151.002 49.864, 155.075 62.715, 162.976 70.856 C 166.518 74.506, 167.257 74.841, 170.696 74.358 C 177.551 73.397, 186.686 68.291, 190.510 63.283 C 202.007 48.227, 197.323 27.039, 180.753 19.152 C 177.314 17.514, 172.788 15.935, 170.696 15.642 C 167.257 15.159, 166.518 15.494, 162.976 19.144 M 40.114 142.492 C 26.593 157.160, 26.892 179.308, 40.812 194.250 C 47.563 201.496, 65.110 193.650, 71.539 180.510 C 77.077 169.191, 74.417 155.405, 64.996 146.593 C 59.728 141.666, 55.331 139.472, 48.742 138.484 C 44.552 137.856, 44.265 137.989, 40.114 142.492" stroke="none" fill="#6efeeb" fill-rule="evenodd"/><path d="M 19.235 16.037 C 16.073 17.307, 15 20.862, 15 30.065 L 15 38 11 38 L 7 38 7 45 L 7 52 11 52 L 15 52 15 59.953 C 15 72.255, 17.193 75, 27.022 75 C 31.899 75, 31.940 74.973, 30.975 72.435 C 30.436 71.018, 30 58.739, 30 45 C 30 31.261, 30.436 18.982, 30.975 17.565 C 31.947 15.010, 31.929 15, 26.725 15.063 C 23.851 15.098, 20.481 15.536, 19.235 16.037 M 264.315 16.007 C 260.331 17.612, 260 19.864, 260 45.323 C 260 74.740, 259.786 74.137, 270.467 74.817 C 277.010 75.234, 277.171 75.187, 276.101 73.189 C 274.642 70.462, 274.583 19.649, 276.035 16.934 C 277 15.132, 276.709 15.004, 271.785 15.063 C 268.878 15.098, 265.517 15.523, 264.315 16.007 M 185.500 173.752 C 178.444 179.870, 166.086 193.421, 165.167 196.048 C 164.972 196.604, 168.517 197, 173.698 197 L 182.563 197 188.321 191.181 L 194.080 185.361 193.790 176.088 L 193.500 166.816 185.500 173.752 M 250.455 250.455 L 248 252.909 248.014 284.205 C 248.021 301.417, 248.303 316.531, 248.641 317.790 C 249.486 320.944, 253.940 323, 259.926 323 C 264.906 323, 264.942 322.977, 263.975 320.435 C 262.628 316.893, 262.683 252.460, 264.035 249.934 C 265.006 248.120, 264.692 248, 258.990 248 C 253.867 248, 252.522 248.387, 250.455 250.455 M 17.861 262.910 C 15.510 264.812, 15.499 264.924, 15.202 289.715 C 14.914 313.798, 14.974 314.697, 17.025 317.305 C 18.883 319.666, 19.848 320, 24.823 320.001 L 30.500 320.002 30.192 292.544 C 29.983 274.016, 30.239 264.423, 30.977 263.044 C 32.021 261.092, 31.803 261, 26.146 261 C 21.805 261, 19.591 261.511, 17.861 262.910 M 380.615 381.173 L 373.730 388.206 378.867 393.343 L 384.003 398.479 391.228 391.254 L 398.454 384.029 393.514 379.015 C 390.798 376.257, 388.333 374.032, 388.038 374.070 C 387.742 374.109, 384.402 377.305, 380.615 381.173" stroke="none" fill="#ffc472" fill-rule="evenodd"/><path d="M 30.998 17.504 C 29.685 20.959, 29.685 69.041, 30.998 72.496 L 31.997 75.121 50.973 74.811 C 76.724 74.389, 74.500 77.207, 74.500 45 C 74.500 12.793, 76.724 15.611, 50.973 15.189 L 31.997 14.879 30.998 17.504 M 276.067 16.874 C 274.427 19.939, 274.623 71.102, 276.283 73.373 C 277.443 74.958, 279.368 75.098, 296.181 74.814 C 312.821 74.533, 315.018 74.298, 316.898 72.595 C 318.930 70.753, 319 69.836, 319 45 C 319 20.164, 318.930 19.247, 316.898 17.405 C 315.016 15.700, 312.822 15.468, 295.965 15.190 C 278.010 14.895, 277.085 14.973, 276.067 16.874 M 138.243 139.223 C 134.468 141.044, 133.839 145.833, 134.181 170.147 C 134.586 198.917, 133.356 197, 151.414 197 C 163.258 197, 164.634 196.815, 165.719 195.078 C 168.585 190.490, 180.281 178.022, 186.853 172.549 L 194 166.599 194 156.449 C 194 144.789, 192.925 140.743, 189.403 139.138 C 186.075 137.622, 141.411 137.696, 138.243 139.223 M 264.035 249.934 C 262.922 252.013, 262.553 315.730, 263.630 319.750 L 264.233 322 291.462 322 C 316.570 322, 318.819 321.858, 320.345 320.171 C 321.815 318.547, 322 314.639, 322 285.244 L 322 252.145 319.365 250.073 C 316.854 248.097, 315.518 248, 290.900 248 C 266.386 248, 265.018 248.099, 264.035 249.934 M 31.035 262.934 C 29.925 265.008, 29.565 313.775, 30.630 317.750 C 31.229 319.985, 31.365 320, 50.506 320 C 67.994 320, 69.997 319.823, 72.139 318.088 L 74.500 316.175 74.500 290.499 L 74.500 264.822 72.139 262.911 C 70.002 261.181, 67.996 261, 50.924 261 C 33.307 261, 32.002 261.127, 31.035 262.934 M 293 270.500 L 293 278 300.500 278 L 308 278 308 270.500 L 308 263 300.500 263 L 293 263 293 270.500 M 293 300.500 L 293 308 300.500 308 L 308 308 308 300.500 L 308 293 300.500 293 L 293 293 293 300.500 M 391.221 391.312 L 384.115 398.500 388.999 404 L 393.883 409.500 401.441 402.025 C 405.599 397.914, 409 394.256, 409 393.897 C 409 393.537, 406.598 391.191, 403.663 388.684 L 398.326 384.124 391.221 391.312" stroke="none" fill="#fff08a" fill-rule="evenodd"/><path d="M 319.430 45 C 319.430 57.925, 319.573 63.212, 319.747 56.750 C 319.921 50.287, 319.921 39.712, 319.747 33.250 C 319.573 26.787, 319.430 32.075, 319.430 45 M 146.250 197.739 C 149.412 197.937, 154.588 197.937, 157.750 197.739 C 160.912 197.541, 158.325 197.378, 152 197.378 C 145.675 197.378, 143.088 197.541, 146.250 197.739 M 322.446 285.500 C 322.447 303.100, 322.583 310.159, 322.749 301.187 C 322.914 292.215, 322.914 277.815, 322.748 269.187 C 322.581 260.559, 322.446 267.900, 322.446 285.500 M 277.750 322.747 C 285.038 322.918, 296.962 322.918, 304.250 322.747 C 311.538 322.577, 305.575 322.437, 291 322.437 C 276.425 322.437, 270.462 322.577, 277.750 322.747" stroke="none" fill="#e1d69c" fill-rule="evenodd"/><path d="M 145.453 24.250 L 141.500 28.500 145.750 24.547 C 149.702 20.871, 150.460 20, 149.703 20 C 149.540 20, 147.627 21.913, 145.453 24.250 M 188 23.500 C 189.866 25.425, 191.617 27, 191.892 27 C 192.167 27, 190.866 25.425, 189 23.500 C 187.134 21.575, 185.383 20, 185.108 20 C 184.833 20, 186.134 21.575, 188 23.500 M 259.432 45 C 259.432 58.475, 259.574 63.987, 259.747 57.250 C 259.920 50.513, 259.920 39.487, 259.747 32.750 C 259.574 26.012, 259.432 31.525, 259.432 45 M 8.750 37.706 C 9.988 37.944, 12.012 37.944, 13.250 37.706 C 14.488 37.467, 13.475 37.272, 11 37.272 C 8.525 37.272, 7.512 37.467, 8.750 37.706 M 197.300 45 C 197.300 48.025, 197.487 49.263, 197.716 47.750 C 197.945 46.237, 197.945 43.763, 197.716 42.250 C 197.487 40.737, 197.300 41.975, 197.300 45 M 145.500 66 C 147.648 68.200, 149.631 70, 149.906 70 C 150.181 70, 148.648 68.200, 146.500 66 C 144.352 63.800, 142.369 62, 142.094 62 C 141.819 62, 143.352 63.800, 145.500 66 M 187.946 66.750 L 184.500 70.500 188.250 67.054 C 190.313 65.158, 192 63.471, 192 63.304 C 192 62.540, 191.154 63.260, 187.946 66.750 M 43.250 137.689 C 44.212 137.941, 45.788 137.941, 46.750 137.689 C 47.712 137.438, 46.925 137.232, 45 137.232 C 43.075 137.232, 42.288 137.438, 43.250 137.689 M 151.750 137.747 C 158.488 137.920, 169.512 137.920, 176.250 137.747 C 182.988 137.574, 177.475 137.432, 164 137.432 C 150.525 137.432, 145.012 137.574, 151.750 137.747 M 281.250 137.689 C 282.212 137.941, 283.788 137.941, 284.750 137.689 C 285.712 137.438, 284.925 137.232, 283 137.232 C 281.075 137.232, 280.288 137.438, 281.250 137.689 M 27.400 142.833 C 25.255 144.392, 22.842 146.529, 22.038 147.583 C 21.234 148.637, 21.909 148.308, 23.538 146.852 C 25.167 145.396, 28.075 143.260, 30 142.106 C 31.925 140.952, 33.005 140.006, 32.400 140.004 C 31.795 140.002, 29.545 141.275, 27.400 142.833 M 298 142.106 C 299.925 143.260, 302.833 145.396, 304.462 146.852 C 306.091 148.308, 306.766 148.637, 305.962 147.583 C 304.114 145.160, 297.058 139.999, 295.600 140.004 C 294.995 140.006, 296.075 140.952, 298 142.106 M 63 143.313 C 63 143.485, 64.463 144.948, 66.250 146.563 L 69.500 149.500 66.563 146.250 C 63.825 143.221, 63 142.540, 63 143.313 M 260.946 146.750 L 257.500 150.500 261.250 147.054 C 264.740 143.846, 265.460 143, 264.696 143 C 264.529 143, 262.842 144.688, 260.946 146.750 M 133.428 168 C 133.428 180.375, 133.571 185.438, 133.747 179.250 C 133.922 173.063, 133.922 162.938, 133.747 156.750 C 133.571 150.563, 133.428 155.625, 133.428 168 M 307.358 150.770 C 307.724 151.363, 307.231 152.055, 306.262 152.308 C 304.921 152.658, 305.038 152.796, 306.750 152.884 C 309.142 153.007, 309.767 151.592, 307.845 150.405 C 307.159 149.980, 306.961 150.128, 307.358 150.770 M 276.250 165.716 C 277.762 165.945, 280.238 165.945, 281.750 165.716 C 283.262 165.487, 282.025 165.300, 279 165.300 C 275.975 165.300, 274.738 165.487, 276.250 165.716 M 289.250 165.716 C 290.762 165.945, 293.238 165.945, 294.750 165.716 C 296.262 165.487, 295.025 165.300, 292 165.300 C 288.975 165.300, 287.738 165.487, 289.250 165.716 M 283.264 180.718 C 284.784 180.947, 287.034 180.941, 288.264 180.704 C 289.494 180.467, 288.250 180.279, 285.500 180.286 C 282.750 180.294, 281.744 180.488, 283.264 180.718 M 216.500 186.588 L 213.500 189.165 216.750 187.015 C 218.537 185.832, 220 184.669, 220 184.432 C 220 183.683, 219.577 183.944, 216.500 186.588 M 237.750 191.572 C 233.873 193.675, 234.312 194.401, 238.250 192.399 C 242.020 190.481, 242.687 189.985, 241.417 190.040 C 240.912 190.062, 239.262 190.751, 237.750 191.572 M 200 200.500 C 195.903 204.625, 192.775 208, 193.050 208 C 193.325 208, 196.903 204.625, 201 200.500 C 205.097 196.375, 208.225 193, 207.950 193 C 207.675 193, 204.097 196.375, 200 200.500 M 370 200.500 C 373.543 204.075, 376.667 207, 376.942 207 C 377.217 207, 374.543 204.075, 371 200.500 C 367.457 196.925, 364.333 194, 364.058 194 C 363.783 194, 366.457 196.925, 370 200.500 M 276.250 195.689 C 277.212 195.941, 278.788 195.941, 279.750 195.689 C 280.712 195.438, 279.925 195.232, 278 195.232 C 276.075 195.232, 275.288 195.438, 276.250 195.689 M 291.250 195.689 C 292.212 195.941, 293.788 195.941, 294.750 195.689 C 295.712 195.438, 294.925 195.232, 293 195.232 C 291.075 195.232, 290.288 195.438, 291.250 195.689 M 249 202.500 C 247.625 203.286, 246.950 203.929, 247.500 203.929 C 248.050 203.929, 249.625 203.286, 251 202.500 C 252.375 201.714, 253.050 201.071, 252.500 201.071 C 251.950 201.071, 250.375 201.714, 249 202.500 M 211 211.500 C 206.903 215.625, 203.775 219, 204.050 219 C 204.325 219, 207.903 215.625, 212 211.500 C 216.097 207.375, 219.225 204, 218.950 204 C 218.675 204, 215.097 207.375, 211 211.500 M 358.500 211 C 361.766 214.300, 364.662 217, 364.937 217 C 365.212 217, 362.766 214.300, 359.500 211 C 356.234 207.700, 353.338 205, 353.063 205 C 352.788 205, 355.234 207.700, 358.500 211 M 229.417 214.572 L 225.500 218.145 229.750 214.905 C 233.633 211.945, 234.581 211, 233.667 211 C 233.483 211, 231.571 212.608, 229.417 214.572 M 220.946 221.750 L 217.500 225.500 221.250 222.054 C 224.740 218.846, 225.460 218, 224.696 218 C 224.529 218, 222.842 219.688, 220.946 221.750 M 215.377 228.250 C 212.424 231.619, 210.699 234, 211.210 234 C 211.460 234, 213.112 232.200, 214.880 230 C 218.312 225.729, 218.660 224.503, 215.377 228.250 M 191.452 238.093 C 190.572 239.794, 190.030 241.363, 190.247 241.580 C 190.464 241.797, 191.390 240.406, 192.305 238.487 C 194.361 234.175, 193.649 233.845, 191.452 238.093 M 325.500 235.630 C 326.050 236.112, 328.299 238.079, 330.498 240.003 L 334.496 243.500 331.498 240.164 C 329.849 238.329, 327.600 236.362, 326.500 235.792 C 325.400 235.222, 324.950 235.149, 325.500 235.630 M 269.250 247.748 C 277.913 247.915, 292.087 247.915, 300.750 247.748 C 309.413 247.582, 302.325 247.445, 285 247.445 C 267.675 247.445, 260.587 247.582, 269.250 247.748 M 337.450 285.500 C 337.451 304.750, 337.585 312.483, 337.749 302.685 C 337.913 292.888, 337.912 277.138, 337.748 267.685 C 337.584 258.233, 337.450 266.250, 337.450 285.500 M 247.445 285 C 247.445 302.325, 247.582 309.413, 247.748 300.750 C 247.915 292.087, 247.915 277.913, 247.748 269.250 C 247.582 260.587, 247.445 267.675, 247.445 285 M 32.250 260.747 C 39.263 260.919, 50.738 260.919, 57.750 260.747 C 64.763 260.575, 59.025 260.435, 45 260.435 C 30.975 260.435, 25.238 260.575, 32.250 260.747 M 165.286 277.500 C 165.294 280.250, 165.488 281.256, 165.718 279.736 C 165.947 278.216, 165.941 275.966, 165.704 274.736 C 165.467 273.506, 165.279 274.750, 165.286 277.500 M 195.374 285.500 C 195.376 291.550, 195.541 293.896, 195.740 290.713 C 195.939 287.531, 195.937 282.581, 195.736 279.713 C 195.535 276.846, 195.372 279.450, 195.374 285.500 M 405.365 285.500 C 405.368 291, 405.536 293.122, 405.738 290.216 C 405.941 287.311, 405.939 282.811, 405.734 280.216 C 405.528 277.622, 405.363 280, 405.365 285.500 M 375.343 285.500 C 375.346 289.900, 375.522 291.576, 375.733 289.224 C 375.945 286.872, 375.942 283.272, 375.727 281.224 C 375.512 279.176, 375.339 281.100, 375.343 285.500 M 150.286 284.500 C 150.294 287.250, 150.488 288.256, 150.718 286.736 C 150.947 285.216, 150.941 282.966, 150.704 281.736 C 150.467 280.506, 150.279 281.750, 150.286 284.500 M 180.286 285.500 C 180.294 288.250, 180.488 289.256, 180.718 287.736 C 180.947 286.216, 180.941 283.966, 180.704 282.736 C 180.467 281.506, 180.279 282.750, 180.286 285.500 M 165.272 293 C 165.272 295.475, 165.467 296.488, 165.706 295.250 C 165.944 294.012, 165.944 291.988, 165.706 290.750 C 165.467 289.512, 165.272 290.525, 165.272 293 M 143 309.313 C 143 309.485, 144.463 310.948, 146.250 312.563 L 149.500 315.500 146.563 312.250 C 143.825 309.221, 143 308.540, 143 309.313 M 202.026 320.354 C 201.978 321.920, 208.967 334.459, 211.584 337.500 L 214.165 340.500 211.833 337.002 C 210.550 335.078, 207.824 330.353, 205.776 326.502 C 203.728 322.651, 202.041 319.884, 202.026 320.354 M 365.695 325.513 C 364.781 327.431, 364.239 329, 364.490 329 C 365.175 329, 368.210 322.877, 367.753 322.420 C 367.536 322.203, 366.610 323.594, 365.695 325.513 M 235.792 326.500 C 236.362 327.600, 238.329 329.849, 240.164 331.498 L 243.500 334.496 240.003 330.498 C 238.079 328.299, 236.112 326.050, 235.630 325.500 C 235.149 324.950, 235.222 325.400, 235.792 326.500 M 330.437 331.250 L 327.500 334.500 330.750 331.563 C 333.779 328.825, 334.460 328, 333.687 328 C 333.515 328, 332.052 329.462, 330.437 331.250 M 267.685 337.748 C 277.138 337.912, 292.888 337.913, 302.685 337.749 C 312.483 337.585, 304.750 337.451, 285.500 337.450 C 266.250 337.450, 258.233 337.584, 267.685 337.748 M 217 344.500 C 218.866 346.425, 220.617 348, 220.892 348 C 221.167 348, 219.866 346.425, 218 344.500 C 216.134 342.575, 214.383 341, 214.108 341 C 213.833 341, 215.134 342.575, 217 344.500 M 352.437 345.250 L 349.500 348.500 352.750 345.563 C 354.538 343.948, 356 342.485, 356 342.313 C 356 341.540, 355.175 342.221, 352.437 345.250 M 228.070 355 C 232.416 359.096, 239 363.728, 239 362.689 C 239 362.456, 237.178 361.060, 234.952 359.587 C 232.726 358.114, 229.192 355.466, 227.100 353.704 C 225.007 351.942, 225.444 352.525, 228.070 355 M 343.437 354.250 L 340.500 357.500 343.750 354.563 C 346.779 351.825, 347.460 351, 346.687 351 C 346.515 351, 345.052 352.462, 343.437 354.250 M 383 355 C 381.825 356.650, 381.089 358, 381.364 358 C 381.639 358, 382.825 356.650, 384 355 C 385.175 353.350, 385.911 352, 385.636 352 C 385.361 352, 384.175 353.350, 383 355 M 210.500 359 C 213.766 362.300, 216.662 365, 216.937 365 C 217.212 365, 214.766 362.300, 211.500 359 C 208.234 355.700, 205.338 353, 205.063 353 C 204.788 353, 207.234 355.700, 210.500 359 M 359 359.500 C 356.571 361.975, 354.809 364, 355.084 364 C 355.359 364, 357.571 361.975, 360 359.500 C 362.429 357.025, 364.191 355, 363.916 355 C 363.641 355, 361.429 357.025, 359 359.500 M 240 363.493 C 240 364.170, 248.123 368.211, 248.575 367.758 C 248.785 367.549, 246.941 366.398, 244.478 365.202 C 242.015 364.005, 240 363.236, 240 363.493 M 200 370.500 C 203.543 374.075, 206.667 377, 206.942 377 C 207.217 377, 204.543 374.075, 201 370.500 C 197.457 366.925, 194.333 364, 194.058 364 C 193.783 364, 196.457 366.925, 200 370.500 M 325 366 C 323.075 367.054, 321.860 367.935, 322.300 367.958 C 323.359 368.014, 329 365.081, 329 364.474 C 329 363.820, 328.941 363.842, 325 366 M 369.966 370.750 L 364.500 376.500 370.250 371.034 C 375.592 365.956, 376.458 365, 375.716 365 C 375.560 365, 372.972 367.587, 369.966 370.750 M 379.999 380.501 L 372.548 388.002 375.496 390.751 L 378.444 393.500 376.015 390.715 L 373.586 387.931 380.759 380.759 L 387.931 373.586 390.715 376.043 L 393.500 378.500 391.076 375.750 C 389.742 374.238, 388.381 373, 388.051 373 C 387.720 373, 384.097 376.376, 379.999 380.501 M 281.776 375.733 C 284.128 375.945, 287.728 375.942, 289.776 375.727 C 291.824 375.512, 289.900 375.339, 285.500 375.343 C 281.100 375.346, 279.424 375.522, 281.776 375.733 M 402 386.500 C 404.987 389.525, 407.657 392, 407.932 392 C 408.207 392, 405.987 389.525, 403 386.500 C 400.013 383.475, 397.343 381, 397.068 381 C 396.793 381, 399.013 383.475, 402 386.500 M 386 402.500 C 388.987 405.525, 391.657 408, 391.932 408 C 392.207 408, 389.987 405.525, 387 402.500 C 384.013 399.475, 381.343 397, 381.068 397 C 380.793 397, 383.013 399.475, 386 402.500 M 281.280 405.736 C 283.909 405.943, 287.959 405.940, 290.280 405.731 C 292.601 405.521, 290.450 405.352, 285.500 405.355 C 280.550 405.358, 278.651 405.530, 281.280 405.736 M 411.971 412.750 L 405.500 419.500 412.250 413.029 C 415.962 409.470, 419 406.432, 419 406.279 C 419 405.543, 417.982 406.480, 411.971 412.750 M 434.500 417 C 437.766 420.300, 440.662 423, 440.937 423 C 441.212 423, 438.766 420.300, 435.500 417 C 432.234 413.700, 429.338 411, 429.063 411 C 428.788 411, 431.234 413.700, 434.500 417 M 450 431.500 C 453.543 435.075, 456.667 438, 456.942 438 C 457.217 438, 454.543 435.075, 451 431.500 C 447.457 427.925, 444.333 425, 444.058 425 C 443.783 425, 446.457 427.925, 450 431.500 M 414.500 433 C 416.648 435.200, 418.631 437, 418.906 437 C 419.181 437, 417.648 435.200, 415.500 433 C 413.352 430.800, 411.369 429, 411.094 429 C 410.819 429, 412.352 430.800, 414.500 433 M 466 446.500 C 469.543 450.075, 472.667 453, 472.942 453 C 473.217 453, 470.543 450.075, 467 446.500 C 463.457 442.925, 460.333 440, 460.058 440 C 459.783 440, 462.457 442.925, 466 446.500 M 426.924 451.750 L 424.500 454.500 427.268 452.059 L 430.035 449.618 434.768 454.059 L 439.500 458.500 435.042 453.750 C 432.590 451.137, 430.306 449, 429.966 449 C 429.626 449, 428.258 450.238, 426.924 451.750 M 482 461.500 C 485.543 465.075, 488.667 468, 488.942 468 C 489.217 468, 486.543 465.075, 483 461.500 C 479.457 457.925, 476.333 455, 476.058 455 C 475.783 455, 478.457 457.925, 482 461.500 M 447.234 473.029 C 445.438 474.663, 444.347 476, 444.810 476 C 445.273 476, 446.708 474.876, 447.999 473.501 C 450.257 471.098, 450.424 471.069, 452.423 472.751 C 454.498 474.498, 454.498 474.497, 452.595 472.250 C 451.547 471.012, 450.647 470.013, 450.595 470.029 C 450.543 470.045, 449.030 471.395, 447.234 473.029 M 462 483.500 C 465.543 487.075, 468.667 490, 468.942 490 C 469.217 490, 466.543 487.075, 463 483.500 C 459.457 479.925, 456.333 477, 456.058 477 C 455.783 477, 458.457 479.925, 462 483.500" stroke="none" fill="#050606" fill-rule="evenodd"/></svg>