<svg xmlns="http://www.w3.org/2000/svg" width="512" height="512" viewBox="0 0 512 512" version="1.1"><path d="M 71.250 56.742 C 74.963 56.934, 81.037 56.934, 84.750 56.742 C 88.463 56.549, 85.425 56.392, 78 56.392 C 70.575 56.392, 67.537 56.549, 71.250 56.742 M 77.250 104.735 C 79.862 104.941, 84.138 104.941, 86.750 104.735 C 89.362 104.529, 87.225 104.360, 82 104.360 C 76.775 104.360, 74.638 104.529, 77.250 104.735 M 69.750 167.743 C 73.737 167.932, 80.263 167.932, 84.250 167.743 C 88.237 167.553, 84.975 167.397, 77 167.397 C 69.025 167.397, 65.763 167.553, 69.750 167.743 M 78.280 215.736 C 80.909 215.943, 84.959 215.940, 87.280 215.731 C 89.601 215.521, 87.450 215.352, 82.500 215.355 C 77.550 215.358, 75.651 215.530, 78.280 215.736 M 78.280 295.736 C 80.909 295.943, 84.959 295.940, 87.280 295.731 C 89.601 295.521, 87.450 295.352, 82.500 295.355 C 77.550 295.358, 75.651 295.530, 78.280 295.736 M 69.750 343.743 C 73.737 343.932, 80.263 343.932, 84.250 343.743 C 88.237 343.553, 84.975 343.397, 77 343.397 C 69.025 343.397, 65.763 343.553, 69.750 343.743 M 55 445.500 C 34.381 466.125, 16.945 483, 16.255 483 C 15.565 483, 15 483.675, 15 484.500 C 15 485.325, 15.115 486, 15.255 486 C 15.395 486, 33.055 468.450, 54.500 447 C 75.945 425.550, 93.265 408, 92.990 408 C 92.715 408, 75.619 424.875, 55 445.500 M 64.500 458 L 25.510 497 259.600 497 C 485.113 497, 493.751 496.933, 495.345 495.171 C 496.818 493.544, 497 489.541, 497 458.826 C 497 426.657, 496.876 424.197, 495.171 422.655 C 493.588 421.222, 490.433 421, 471.671 421 L 450 421 450 435.427 C 450 449.823, 449.994 449.859, 447.365 451.927 C 444.006 454.570, 441.979 454.541, 438.385 451.800 L 435.500 449.600 437.391 451.785 C 438.929 453.561, 439.169 454.926, 438.676 459.087 C 437.604 468.139, 431.564 476.020, 422.500 480.196 L 417.500 482.500 229 482.764 L 40.500 483.028 72.494 451.014 C 90.091 433.406, 104.264 419, 103.989 419 C 103.715 419, 85.945 436.550, 64.500 458 M 148.395 434.500 C 148.396 442.200, 148.553 445.218, 148.743 441.206 C 148.934 437.195, 148.932 430.895, 148.741 427.206 C 148.549 423.518, 148.393 426.800, 148.395 434.500 M 211.360 430 C 211.360 435.225, 211.529 437.363, 211.735 434.750 C 211.941 432.137, 211.941 427.863, 211.735 425.250 C 211.529 422.637, 211.360 424.775, 211.360 430 M 259.395 434.500 C 259.396 442.200, 259.553 445.218, 259.743 441.206 C 259.934 437.195, 259.932 430.895, 259.741 427.206 C 259.549 423.518, 259.393 426.800, 259.395 434.500 M 339.392 434 C 339.392 441.425, 339.549 444.462, 339.742 440.750 C 339.934 437.038, 339.934 430.962, 339.742 427.250 C 339.549 423.538, 339.392 426.575, 339.392 434 M 387.360 430 C 387.360 435.225, 387.529 437.363, 387.735 434.750 C 387.941 432.137, 387.941 427.863, 387.735 425.250 C 387.529 422.637, 387.360 424.775, 387.360 430" stroke="none" fill="#78c2a4" fill-rule="evenodd"/><path d="M 18.693 15.681 C 17.699 15.949, 16.462 17.285, 15.943 18.649 C 15.389 20.108, 15 46.868, 15 83.565 C 15 144.667, 14.957 146.043, 13 148 C 11.900 149.100, 10.100 150, 9 150 C 7.133 150, 7 150.667, 7 160 C 7 169.333, 7.133 170, 9 170 C 10.100 170, 11.900 170.900, 13 172 C 14.983 173.983, 15 175.333, 15 328.500 C 15 451.762, 15.254 483, 16.255 483 C 16.945 483, 34.158 466.237, 54.505 445.750 L 91.500 408.500 91.200 383.750 L 90.901 359 76.905 359 C 63.378 359, 62.827 358.918, 60.455 356.545 C 58.907 354.998, 58 352.948, 58 351 C 58 349.052, 58.907 347.002, 60.455 345.455 C 62.828 343.081, 63.375 343, 76.955 343 L 91 343 91 327 L 91 311 81.674 311 C 73.219 311, 72.146 310.784, 70.174 308.686 C 67.471 305.808, 67.355 301.019, 69.911 297.861 C 71.635 295.731, 72.757 295.466, 81.411 295.153 L 91 294.807 91 278.903 L 91 263 76.539 263 C 62.950 263, 61.955 262.868, 60.039 260.811 C 57.410 257.990, 57.410 253.010, 60.039 250.189 C 61.955 248.132, 62.950 248, 76.539 248 L 91 248 91 232.097 L 91 216.193 81.411 215.847 C 72.757 215.534, 71.635 215.269, 69.911 213.139 C 67.258 209.862, 67.442 204.873, 70.314 202.174 C 72.344 200.268, 73.760 200, 81.814 200 L 91 200 91 184 L 91 168 76.955 168 C 63.375 168, 62.828 167.919, 60.455 165.545 C 57.207 162.298, 57.207 157.702, 60.455 154.455 C 62.828 152.081, 63.375 152, 76.955 152 L 91 152 91 136 L 91 120 82.135 120 C 71.155 120, 68 118.214, 68 112 C 68 105.786, 71.155 104, 82.135 104 L 91 104 91 88 L 91 72 76.674 72 C 62.993 72, 62.251 71.896, 60.174 69.686 C 57.871 67.233, 57.355 63.073, 58.979 60.039 C 60.588 57.033, 65.618 56, 78.649 56 L 91 56 91 37.691 C 91 23.463, 90.684 18.950, 89.582 17.441 C 88.230 15.591, 86.572 15.493, 54.332 15.347 C 35.724 15.263, 19.687 15.414, 18.693 15.681 M 72 451.478 L 40.500 483.028 229 482.764 L 417.500 482.500 422.500 480.196 C 431.531 476.035, 437.604 468.139, 438.666 459.176 C 439.161 454.993, 438.903 453.692, 437.131 451.439 C 435.189 448.971, 435 447.499, 435 434.865 L 435 421 419 421 L 403 421 403 429.865 C 403 440.845, 401.214 444, 395 444 C 388.786 444, 387 440.845, 387 429.865 L 387 421 371 421 L 355 421 355 435.326 C 355 449.007, 354.896 449.749, 352.686 451.826 C 350.233 454.129, 346.073 454.645, 343.039 453.021 C 340.033 451.412, 339 446.382, 339 433.351 L 339 421 323 421 L 307 421 307 430.500 C 307 441.537, 305.632 444, 299.500 444 C 293.368 444, 292 441.537, 292 430.500 L 292 421 276 421 L 260 421 260 434.050 C 260 450.902, 258.617 454, 251.093 454 C 249.517 454, 247.423 453.014, 246.174 451.686 C 244.153 449.534, 244 448.374, 244 435.186 L 244 421 228 421 L 212 421 212 429.865 C 212 440.845, 210.214 444, 204 444 C 197.786 444, 196 440.845, 196 429.865 L 196 421 180 421 L 164 421 164 434.865 C 164 447.378, 163.798 448.987, 161.927 451.365 C 159.393 454.587, 154.356 454.917, 150.861 452.091 C 148.606 450.267, 148.486 449.528, 148.176 435.591 L 147.852 421 127.676 420.986 C 116.579 420.979, 106.600 420.738, 105.500 420.451 C 103.915 420.037, 96.963 426.476, 72 451.478" stroke="none" fill="#95d6a4" fill-rule="evenodd"/><path d="M 217 217.262 C 217 262.142, 217.128 265.801, 218.750 267.200 C 220.656 268.844, 300.488 315, 301.426 315 C 301.742 315, 302 293.061, 302 266.247 L 302 217.493 260.444 193.497 C 237.588 180.299, 218.463 169.350, 217.944 169.167 C 217.360 168.961, 217 187.332, 217 217.262 M 387 177.047 C 379.575 181.406, 372.444 184.979, 371.154 184.986 C 369.864 184.994, 367.550 184.257, 366.012 183.348 C 363.267 181.726, 363.072 181.779, 355.358 186.235 C 347.999 190.486, 347.520 190.968, 347.819 193.824 C 347.994 195.502, 347.666 197.756, 347.089 198.834 C 346.512 199.912, 339.508 204.553, 331.524 209.147 L 317.009 217.500 317.004 266.250 C 317.002 293.063, 317.276 315, 317.614 315 C 318.586 315, 398.304 268.896, 400.250 267.208 C 401.872 265.801, 402 262.143, 402 217.345 C 402 190.755, 401.663 169.027, 401.250 169.061 C 400.837 169.094, 394.425 172.688, 387 177.047" stroke="none" fill="#bed8fb" fill-rule="evenodd"/><path d="M 11.500 1.662 C 7.108 3.977, 4.054 7.016, 1.903 11.210 C 0.090 14.745, -0 18.001, -0 80.286 L -0 145.651 2.325 147.836 C 5.092 150.435, 9.826 149.954, 12.699 146.781 C 14.388 144.915, 14.517 140.823, 14.779 81.213 C 14.973 37.056, 15.392 17.233, 16.151 16.318 C 17.019 15.272, 24.648 15, 53.066 15 L 88.887 15 90.443 17.223 C 91.718 19.042, 92 22.846, 92 38.223 L 92 57 78.135 57 C 65.622 57, 64.013 57.202, 61.635 59.073 C 58.411 61.608, 58.122 66.122, 61 69 C 62.816 70.816, 64.333 71, 77.500 71 L 92 71 92 88 L 92 105 82.689 105 C 72.065 105, 69 106.576, 69 112.039 C 69 117.571, 71.772 119, 82.500 119 L 92 119 92 136 L 92 153 77.500 153 C 64.333 153, 62.816 153.184, 61 155 C 58.122 157.878, 58.411 162.392, 61.635 164.927 C 64.013 166.798, 65.622 167, 78.135 167 L 92 167 92 184 L 92 201 82.155 201 C 71.080 201, 69 202.068, 69 207.756 C 69 213.134, 72.642 215, 83.135 215 L 92 215 92 231.406 L 92 247.812 77.603 248.156 C 61.329 248.545, 59 249.464, 59 255.500 C 59 261.536, 61.329 262.455, 77.603 262.844 L 92 263.188 92 279.594 L 92 296 83.135 296 C 72.457 296, 69 297.838, 69 303.516 C 69 308.743, 71.660 310, 82.723 310 L 92 310 92 327 L 92 344 78.135 344 C 65.622 344, 64.013 344.202, 61.635 346.073 C 58.411 348.608, 58.122 353.122, 61 356 C 62.815 357.815, 64.333 358, 77.438 358 L 91.875 358 92.194 383.750 L 92.512 409.500 54.006 448.255 L 15.500 487.010 15 331.033 C 14.505 176.637, 14.480 175.035, 12.497 173.052 C 9.343 169.898, 4.626 169.374, 2.104 171.896 L 0 174 0 335.540 C 0 492.359, 0.056 497.188, 1.903 500.790 C 4.108 505.089, 7.183 508.101, 11.700 510.383 C 14.622 511.859, 35.923 512, 255.990 512 C 491.003 512, 497.173 511.952, 500.790 510.097 C 505.039 507.918, 507.740 505.119, 510.831 499.693 L 513 495.886 512.756 334.193 L 512.512 172.500 512.006 296.500 C 511.728 364.700, 511.131 419.485, 510.681 418.245 C 509.468 414.904, 505.189 410.162, 501.631 408.214 C 498.713 406.617, 485.229 406.466, 303.800 406 C 145.905 405.595, 108.854 405.254, 107.800 404.200 C 106.746 403.146, 106.405 366.096, 106 208.200 C 105.541 29.483, 105.364 13.254, 103.845 10.500 C 101.811 6.813, 98.518 3.748, 94.300 1.617 C 91.514 0.209, 86.142 0.005, 52.800 0.040 C 19.862 0.074, 14.080 0.301, 11.500 1.662 M 165.270 62.483 C 159.200 65.121, 158.008 68.700, 158.004 84.295 C 158 97.612, 158.085 98.176, 160.455 100.545 C 163.563 103.654, 167.111 103.668, 170.694 100.588 C 173.390 98.272, 173.513 97.760, 173.841 87.588 L 174.182 77 184.168 77 C 193.872 77, 194.236 76.917, 197.077 74.077 C 198.685 72.469, 200 70.422, 200 69.527 C 200 67.056, 197.278 62.321, 195.455 61.621 C 192.172 60.361, 168.602 61.034, 165.270 62.483 M 422.635 63.073 C 419.413 65.607, 419.083 70.645, 421.910 74.139 C 423.659 76.301, 424.701 76.528, 434.300 76.838 L 444.780 77.176 445.169 87.700 C 445.541 97.744, 445.685 98.333, 448.335 100.612 C 451.890 103.670, 455.444 103.647, 458.545 100.545 C 460.915 98.176, 461 97.612, 460.996 84.295 C 460.991 63.038, 458.949 61, 437.667 61 C 426.639 61, 424.979 61.229, 422.635 63.073 M 299 93.266 C 282.352 102.227, 209.986 144.664, 207.747 146.778 C 206.234 148.209, 204.096 151.236, 202.997 153.505 C 201.074 157.478, 201.001 159.674, 201.022 212.566 C 201.046 273.883, 200.827 271.839, 208.128 278.642 C 212.566 282.779, 299.282 332.730, 304.431 334.116 C 309.450 335.468, 314.853 334.624, 320.833 331.554 C 333.646 324.977, 408.560 280.965, 411.228 278.447 C 418.117 271.944, 417.954 273.541, 417.978 212.566 C 417.999 159.674, 417.926 157.478, 416.003 153.505 C 414.904 151.236, 412.766 148.204, 411.253 146.768 C 409.739 145.332, 388.025 132.323, 363 117.860 L 317.500 91.564 310.500 91.204 C 304.574 90.900, 302.809 91.216, 299 93.266 M 264.500 130.007 C 241.950 143.096, 223.584 154.124, 223.686 154.514 C 223.950 155.523, 308.055 204, 309.541 204 C 310.218 204, 317.146 200.321, 324.938 195.825 C 337.348 188.665, 339.436 187.767, 341.772 188.589 C 343.238 189.104, 345.127 190.758, 345.969 192.263 C 348.592 196.952, 346.172 199.511, 330.725 208.384 L 317 216.267 317 266.594 L 317 316.921 338.750 304.359 C 350.712 297.450, 369.838 286.406, 381.252 279.816 C 396.248 271.157, 402.149 267.233, 402.529 265.667 C 402.818 264.475, 402.930 241.791, 402.777 215.258 L 402.500 167.017 387.805 175.508 C 379.722 180.179, 371.977 184, 370.594 184 C 367.694 184, 364 180.496, 364 177.746 C 364 173.902, 366.358 171.924, 381.065 163.430 C 389.350 158.644, 395.763 154.375, 395.315 153.942 C 394.867 153.509, 376.129 142.545, 353.675 129.577 C 319.594 109.894, 312.243 106.017, 309.175 106.104 C 306.295 106.186, 296.637 111.353, 264.500 130.007 M 216 216.283 C 216 264.978, 216.030 265.717, 218.071 267.595 C 221.501 270.749, 301.440 316.747, 302.260 316.038 C 302.677 315.677, 302.902 293.150, 302.760 265.978 L 302.500 216.576 264 194.327 C 242.825 182.091, 223.363 170.908, 220.750 169.477 L 216 166.875 216 216.283 M 0.488 336 C 0.488 425.375, 0.606 461.937, 0.750 417.250 C 0.894 372.562, 0.894 299.437, 0.750 254.750 C 0.606 210.062, 0.488 246.625, 0.488 336 M 160.455 325.455 C 158.093 327.816, 158 328.415, 158 341.307 C 158 353.597, 158.188 354.984, 160.280 358.088 C 163.835 363.363, 165.979 363.969, 181.139 363.985 C 197.138 364.003, 199.400 363.075, 199.400 356.500 C 199.400 350.299, 196.815 349, 184.480 349 L 174.182 349 173.841 338.412 C 173.513 328.240, 173.390 327.728, 170.694 325.412 C 167.111 322.332, 163.563 322.346, 160.455 325.455 M 448.335 325.388 C 445.683 327.670, 445.541 328.249, 445.166 338.388 L 444.773 349 434.561 349 C 425.179 349, 424.172 349.188, 422.174 351.314 C 419.407 354.260, 419.324 359.324, 422 362 C 423.814 363.814, 425.333 364, 438.365 364 C 451.419 364, 452.973 363.809, 455.385 361.912 C 460.226 358.104, 461 355.223, 461 341.004 C 461 328.434, 460.902 327.811, 458.545 325.455 C 455.444 322.353, 451.890 322.330, 448.335 325.388 M 63.505 457.949 L 24.510 497 259.555 497 C 441.034 497, 494.873 496.727, 495.800 495.800 C 496.688 494.912, 497 485.338, 497 458.922 C 497 426.978, 496.827 423.101, 495.349 421.872 C 494.087 420.824, 488.543 420.428, 471.849 420.196 L 450 419.892 450 433.811 C 450 446.379, 449.799 447.986, 447.927 450.365 C 445.392 453.589, 440.878 453.878, 438 451 C 436.184 449.184, 436 447.667, 436 434.500 L 436 420 419 420 L 402 420 402 429.277 C 402 440.362, 400.747 443, 395.482 443 C 389.527 443, 388 440.207, 388 429.311 L 388 420 371 420 L 354 420 354 434.500 C 354 447.667, 353.816 449.184, 352 451 C 349.122 453.878, 344.608 453.589, 342.073 450.365 C 340.202 447.987, 340 446.378, 340 433.865 L 340 420 323.597 420 L 307.193 420 306.847 429.474 C 306.551 437.566, 306.186 439.261, 304.347 441.099 C 301.743 443.701, 297.628 443.878, 295.002 441.501 C 293.393 440.045, 293.022 438.143, 292.785 430.126 L 292.500 420.500 275.750 420.226 L 259 419.952 259 433.841 C 259 446.378, 258.798 447.987, 256.927 450.365 C 254.392 453.589, 249.878 453.878, 247 451 C 245.184 449.184, 245 447.667, 245 434.500 L 245 420 228 420 L 211 420 211 429.500 C 211 440.252, 209.575 443, 204 443 C 198.425 443, 197 440.252, 197 429.500 L 197 420 180 420 L 163 420 163 434.500 C 163 447.667, 162.816 449.184, 161 451 C 158.122 453.878, 153.608 453.589, 151.073 450.365 C 149.202 447.987, 149 446.378, 149 433.865 L 149 420 128.625 420 C 117.419 420, 106.956 419.752, 105.375 419.449 C 102.693 418.935, 99.878 421.524, 63.505 457.949" stroke="none" fill="#000000" fill-rule="evenodd"/><path d="M 285.995 118.834 C 235.313 147.961, 225.775 153.637, 225.991 154.547 C 226.116 155.071, 244.948 166.322, 267.841 179.549 L 309.464 203.597 323.982 195.303 C 331.967 190.741, 339.227 187.006, 340.115 187.004 C 341.003 187.002, 342.892 187.914, 344.312 189.031 L 346.895 191.062 355.340 186.281 C 363.459 181.684, 363.766 181.381, 363.290 178.425 C 362.559 173.886, 365.506 171.211, 381.126 162.236 L 394.751 154.406 353.626 130.660 C 331.006 117.599, 311.598 106.687, 310.495 106.410 C 309.147 106.071, 301.121 110.141, 285.995 118.834 M 216.225 215.750 C 216.348 242.012, 216.572 255.850, 216.722 246.500 C 217.419 202.896, 217.432 167.999, 216.750 167.999 C 216.338 168, 216.101 189.488, 216.225 215.750 M 402.462 215.500 C 402.463 241.900, 402.592 252.556, 402.749 239.181 C 402.907 225.805, 402.907 204.205, 402.749 191.181 C 402.591 178.156, 402.462 189.100, 402.462 215.500" stroke="none" fill="#9dc6fb" fill-rule="evenodd"/><path d="M 91.419 38 C 91.419 48.725, 91.566 53.112, 91.746 47.750 C 91.925 42.387, 91.925 33.612, 91.746 28.250 C 91.566 22.887, 91.419 27.275, 91.419 38 M 77.226 71.747 L 90.952 72.056 91.252 88.778 L 91.552 105.500 91.776 88.250 L 92 71 77.750 71.219 L 63.500 71.439 77.226 71.747 M 68.102 112.059 C 68.046 113.466, 68.708 115.491, 69.574 116.559 C 70.440 117.626, 70.818 117.864, 70.415 117.087 C 70.011 116.310, 69.349 114.285, 68.943 112.587 C 68.264 109.749, 68.196 109.706, 68.102 112.059 M 82.750 119.744 L 91 120.081 91 136.011 L 91 151.942 77.750 152.253 L 64.500 152.563 78.250 152.782 L 92 153 92 136 L 92 119 83.250 119.204 L 74.500 119.407 82.750 119.744 M 91 183.461 L 91 199.922 82.250 200.255 L 73.500 200.589 82.750 200.794 L 92 201 92 184 C 92 174.650, 91.775 167, 91.500 167 C 91.225 167, 91 174.407, 91 183.461 M 91.409 231.500 C 91.408 240.850, 91.558 244.810, 91.743 240.299 C 91.928 235.789, 91.929 228.139, 91.745 223.299 C 91.562 218.460, 91.410 222.150, 91.409 231.500 M 300.750 215.998 C 302.493 217.953, 302.587 316.481, 300.845 315.405 C 300.124 314.959, 299.963 315.131, 300.415 315.862 C 300.813 316.506, 301.557 316.774, 302.069 316.457 C 302.623 316.115, 303 295.923, 303 266.563 C 303 220.765, 302.875 217.150, 301.250 215.921 C 299.761 214.794, 299.687 214.806, 300.750 215.998 M 91.409 279.500 C 91.408 288.850, 91.558 292.810, 91.743 288.299 C 91.928 283.789, 91.929 276.139, 91.745 271.299 C 91.562 266.460, 91.410 270.150, 91.409 279.500 M 82.226 310.744 L 90.952 311.077 91.252 327.789 L 91.552 344.500 91.776 327.250 L 92 310 82.750 310.206 L 73.500 310.411 82.226 310.744 M 77.731 358.747 L 90.963 359.058 91.251 381.779 L 91.539 404.500 91.770 381.250 L 92 358 78.250 358.218 L 64.500 358.437 77.731 358.747 M 53.500 448 C 32.055 469.450, 14.735 487, 15.010 487 C 15.285 487, 33.055 469.450, 54.500 448 C 75.945 426.550, 93.265 409, 92.990 409 C 92.715 409, 74.945 426.550, 53.500 448 M 63.500 458 C 42.055 479.450, 24.735 497, 25.010 497 C 25.285 497, 43.055 479.450, 64.500 458 C 85.945 436.550, 103.265 419, 102.990 419 C 102.715 419, 84.945 436.550, 63.500 458 M 118.304 420.747 C 124.247 420.924, 133.697 420.923, 139.304 420.745 C 144.912 420.567, 140.050 420.422, 128.500 420.423 C 116.950 420.424, 112.362 420.570, 118.304 420.747 M 163.218 433.750 L 163.437 447.500 163.747 434.250 L 164.058 421 179.989 421 L 195.919 421 196.256 429.250 L 196.593 437.500 196.796 428.750 L 197 420 180 420 L 163 420 163.218 433.750 M 227.222 420.748 L 243.944 421.048 244.253 434.774 L 244.561 448.500 244.781 434.250 L 245 420 227.750 420.224 L 210.500 420.448 227.222 420.748 M 275.462 420.737 L 291.926 421.048 292.272 430.027 L 292.619 439.005 292.560 429.753 L 292.500 420.500 275.749 420.463 L 258.998 420.425 275.462 420.737 M 315.299 420.745 C 320.139 420.929, 327.789 420.928, 332.299 420.743 C 336.810 420.558, 332.850 420.408, 323.500 420.409 C 314.150 420.410, 310.460 420.562, 315.299 420.745 M 354.219 434.250 L 354.439 448.500 354.747 434.774 L 355.056 421.048 371.778 420.748 L 388.500 420.448 371.250 420.224 L 354 420 354.219 434.250 M 402.204 428.750 L 402.407 437.500 402.744 429.250 L 403.081 421 419.011 421 L 434.942 421 435.253 434.250 L 435.563 447.500 435.782 433.750 L 436 420 419 420 L 402 420 402.204 428.750 M 460.250 420.746 C 466.163 420.923, 475.837 420.923, 481.750 420.746 C 487.663 420.569, 482.825 420.425, 471 420.425 C 459.175 420.425, 454.337 420.569, 460.250 420.746 M 200.853 443.253 C 201.357 443.757, 202.834 444.002, 204.135 443.797 C 206.136 443.482, 205.996 443.342, 203.219 442.881 C 201.231 442.552, 200.298 442.698, 200.853 443.253" stroke="none" fill="#040404" fill-rule="evenodd"/><path d="" stroke="none" fill="#99d1bd" fill-rule="evenodd"/></svg>